<?xml version="1.0" encoding="UTF-8" standalone="no"?>
<!-- Created with Inkscape (http://www.inkscape.org/) -->

<svg
   width="210mm"
   height="297mm"
   viewBox="0 0 210 297"
   version="1.1"
   id="svg5"
   inkscape:version="1.2 (dc2aedaf03, 2022-05-15)"
   sodipodi:docname="Logo.svg"
   xmlns:inkscape="http://www.inkscape.org/namespaces/inkscape"
   xmlns:sodipodi="http://sodipodi.sourceforge.net/DTD/sodipodi-0.dtd"
   xmlns="http://www.w3.org/2000/svg"
   xmlns:svg="http://www.w3.org/2000/svg">
  <sodipodi:namedview
     id="namedview7"
     pagecolor="#ffffff"
     bordercolor="#000000"
     borderopacity="0.25"
     inkscape:showpageshadow="2"
     inkscape:pageopacity="0.0"
     inkscape:pagecheckerboard="0"
     inkscape:deskcolor="#d1d1d1"
     inkscape:document-units="mm"
     showgrid="false"
     inkscape:zoom="0.55981979"
     inkscape:cx="200.95753"
     inkscape:cy="547.49762"
     inkscape:window-width="1440"
     inkscape:window-height="914"
     inkscape:window-x="-6"
     inkscape:window-y="-6"
     inkscape:window-maximized="1"
     inkscape:current-layer="layer1"
     showguides="false" />
  <defs
     id="defs2">
    <rect
       x="83.94322"
       y="675.53282"
       width="656.95378"
       height="144.15222"
       id="rect862" />
    <rect
       x="761.23428"
       y="633.20136"
       width="647.61321"
       height="194.89698"
       id="rect856" />
  </defs>
  <g
     inkscape:label="Layer 1"
     inkscape:groupmode="layer"
     id="layer1">
    <rect
       style="display:inline;fill:#91c4e1;fill-opacity:1;stroke-width:0.269849"
       id="rect950"
       width="251.33565"
       height="255.95621"
       x="-24.170837"
       y="-10.130578" />
    <path
       style="fill:#2c3a79;fill-opacity:1;stroke-width:0.225875"
       id="path734"
       d="m 16.789182,13.488803 c -0.94982,0.0072 -1.881677,0.130038 -2.805896,0.344514 -0.917844,0.227918 -1.74483,0.691124 -2.445924,1.32704 -0.822138,0.787928 -0.988381,1.868859 -1.108341,2.956572 -0.136456,1.673124 0.0028,3.348483 0.122848,5.017398 0.08561,1.457304 0.251274,2.908039 0.339828,4.364983 0.08863,1.263025 -0.04164,2.496108 -0.468492,3.684022 -0.4440403,1.207089 -1.2250193,2.192587 -2.1253521,3.078069 -0.789656,0.746022 -1.721798,1.223317 -2.743363,1.53848 -0.735814,0.20134 -1.48449,0.348646 -2.232237,0.495645 -0.473416,0.08405 -0.932581,0.230092 -1.400029,0.340325 -0.187373,0.02525 -0.378999,0.04907 -0.568426,0.03491 2.663427,2.01212 1.506551,1.56758 3.326653,1.570938 1.080662,0.0062 2.159669,0.005 3.236081,0.110306 0.564443,0.07317 1.128585,0.181328 1.6658718,0.376865 0.8900843,0.323934 2.8199003,1.484022 -0.9782308,-0.654832 0.8371738,0.638697 1.2402508,1.567759 1.5340821,2.55641 0.300317,1.090067 0.121138,2.178253 -0.09406,3.262205 -0.2816313,1.216887 -0.5268183,2.440985 -0.6811483,3.68143 -0.136631,1.165054 -0.164701,2.335552 -0.151497,3.507149 0.01086,1.04036 0.228177,2.051666 0.539455,3.037109 0.115858,0.293858 0.164547,0.460909 0.3386333,0.727203 0.740172,1.132222 2.891712,1.994679 3.670898,2.439509 1.048606,0.255846 2.156221,0.04799 3.21135,-0.08719 0.955728,-0.153194 1.91234,-0.263182 2.879739,-0.28323 0.292083,0.0087 0.541179,0.132912 0.787654,0.279581 0.06035,0.03591 0.237029,0.150861 0.176258,0.115677 -2.157127,-1.248857 -3.077342,-1.849326 -2.221039,-1.292584 0.216332,0.100405 0.432661,0.200812 0.648992,0.301218 0,0 1.478815,0.671036 1.478815,0.671036 v 0 c 0.18039,0.0354 0.360778,0.0708 0.541167,0.106207 -0.790545,-0.697776 -2.406465,-1.811716 -3.717738,-1.869277 -0.95775,0.05644 -1.906025,0.180305 -2.853713,0.331086 -1.034002,0.123622 -2.137164,0.32429 -3.138806,-0.05632 0.684938,0.41407 1.368851,0.829894 2.054811,1.242214 0.114311,0.06871 -0.229143,-0.136784 -0.33983,-0.211369 -0.457341,-0.308165 -0.814384,-0.692054 -1.012196,-1.22088 -0.341715,-0.957099 -0.575718,-1.94473 -0.595407,-2.968658 -0.03385,-1.16071 0.0034,-2.3209 0.128275,-3.475947 0.134296,-1.237722 0.36998,-2.456656 0.658907,-3.666661 0.231869,-1.123021 0.411927,-2.254926 0.13334,-3.390791 -0.273395,-1.027316 -0.641308,-2.002876 -1.447552,-2.726297 -1.9372783,-1.164353 -3.2070221,-2.171083 -5.3890601,-2.363651 -1.090325,-0.0869 -2.183083,-0.08561 -3.276062,-0.109307 -0.449187,0.0033 -0.278305,-0.0072 -0.640967,0.02224 -0.32511,0.0264 -0.415983,0.03638 -0.410061,0.04135 2.006076,1.688389 1.268568,1.768804 2.194984,1.658953 0.199651,-0.02059 0.400001,-0.04023 0.593957,-0.09666 0.455124,-0.125976 0.909194,-0.257261 1.374074,-0.342307 0.746366,-0.159721 1.496054,-0.311989 2.226484,-0.537733 1.039463,-0.360482 1.9936818,-0.872676 2.7866311,-1.661711 0.918028,-0.923195 1.694021,-1.963831 2.15297,-3.203596 0.427252,-1.226577 0.597089,-2.494867 0.485119,-3.797264 -0.07954,-1.4679 -0.269608,-2.925967 -0.382207,-4.391443 -0.125579,-1.658871 -0.284981,-3.323372 -0.169829,-4.988212 0.107834,-1.025974 0.248231,-2.041425 1.029166,-2.781311 0.683588,-0.597081 1.472909,-1.022735 2.355622,-1.233007 0.91023,-0.204018 1.832778,-0.325154 2.767431,-0.293526 0,0 -2.042631,-1.516872 -2.042631,-1.516872 z" />
    <path
       style="fill:#2c3a79;fill-opacity:1;stroke-width:0.225875"
       id="path746"
       d="m 9.6015498,179.51168 c 1.2048082,0.39803 2.4334392,0.71399 3.6508402,1.06865 1.211012,0.3637 2.439412,0.68664 3.597471,1.20488 0.143305,0.088 0.576586,0.34645 0.429916,0.26427 -3.010116,-1.68647 -1.523212,-1.06686 -0.674152,0.10967 0.554503,0.90826 0.889681,1.92076 1.161802,2.94608 0.277757,1.05204 0.255436,2.12729 0.16155,3.20085 -0.172287,1.07509 -0.336485,2.14029 -0.397469,3.22892 -0.02872,0.99929 0.03884,2.00147 0.161725,2.99272 0.118036,0.99597 0.466691,1.91338 0.979721,2.7633 0.335848,0.54115 0.797112,0.9753 1.341761,1.29465 2.695715,1.58065 1.833254,1.19163 3.254514,1.79586 0.919659,0.3595 1.892512,0.55093 2.854644,0.7535 0.351044,0.14593 1.415642,0.11731 1.637975,0.381 -2.641362,-1.7434 -1.497191,-1.75818 -2.672241,-1.28881 -0.31469,0.12572 -0.634992,0.23607 -0.950372,0.36017 -0.865477,0.32862 -1.681649,0.77016 -2.476482,1.24492 -0.931808,0.52683 -1.811856,1.10243 -2.561569,1.8753 -0.718505,0.76804 -1.078171,1.71408 -1.313044,2.72587 -0.134932,1.05457 -0.05177,2.11908 0.07147,3.16983 0.154389,1.11246 0.321871,2.22238 0.41684,3.34204 0.07693,0.94657 0.07707,1.89442 -0.140378,2.82037 -0.290123,1.01735 -0.832911,1.67229 -1.67608,2.26354 -0.889674,0.57071 -1.932293,0.73581 -2.95266,0.8965 -0.954164,0.13451 -1.916885,0.18178 -2.876506,0.25771 -0.9386692,0.0446 -1.8654282,0.16629 -2.7774142,0.39434 -0.544854,0.19746 -0.399165,0.0221 0.05264,0.68624 l 0.934493,0.65422 v 0 c 1.129051,0.45244 0.654257,0.47573 1.3891112,0.3276 0.898933,-0.21605 1.814427,-0.31361 2.736215,-0.36517 0.964554,-0.067 1.931186,-0.12533 2.886966,-0.28083 1.05293,-0.17692 2.118679,-0.381 3.012117,-1.01507 0.922347,-0.67325 1.427773,-1.34224 1.742212,-2.46471 0.226894,-0.96052 0.718979,10.81838 0.611504,9.83672 -0.100165,-1.12454 -0.732709,-15.00114 -0.896206,-16.11777 -0.133662,-1.02664 -0.261685,-2.06489 -0.142996,-3.10039 0.196886,-0.9724 0.531104,-1.86909 1.222043,-2.59959 0.73964,-0.74632 1.613551,-1.29897 2.521327,-1.81426 0.798573,-0.45091 1.607916,-0.88716 2.472907,-1.19426 0.404266,-0.14876 0.88857,-0.26212 1.250058,-0.50754 1.031199,-0.70014 -1.290164,-1.30142 -2.037581,-1.86567 -0.552303,-0.0655 -1.097911,-0.18216 -1.643962,-0.28609 -0.951839,-0.20147 -1.912194,-0.40086 -2.810448,-0.79045 -1.137888,-0.52494 -0.53404,-0.26703 1.377607,0.89456 0.144064,0.0875 -0.296226,-0.16138 -0.436857,-0.25449 -0.213953,-0.14166 -0.52394,-0.39515 -0.697883,-0.58794 -0.09605,-0.10645 -0.173228,-0.22901 -0.259841,-0.3435 -0.546569,-0.80263 -0.905032,-1.68835 -1.041806,-2.65956 -0.140777,-0.98289 -0.226923,-1.97636 -0.224743,-2.97019 0.03905,-1.08878 0.19109,-2.1579 0.363953,-3.2324 0.108176,-1.1037 0.126164,-2.22106 -0.155585,-3.30281 -0.281092,-1.05021 -0.600807,-2.08587 -1.144362,-3.03244 -0.915528,-1.4826 -2.536812,-2.19765 -4.042305,-2.97584 -1.151933,-0.46202 -2.35135,-0.78377 -3.542455,-1.12315 -1.214608,-0.34093 -2.4407452,-0.6492 -3.6295332,-1.07691 l 1.88156,1.49556 z"
       sodipodi:nodetypes="scccccccccscccscccccccccccccscccccccccccscccsssccccccccccs" />
    <text
       xml:space="preserve"
       style="font-size:20.4946px;fill:#2c3a79;fill-opacity:1;stroke-width:0.320228"
       x="32.165516"
       y="151.21648"
       id="text802"
       transform="scale(0.87263469,1.1459549)"><tspan
         sodipodi:role="line"
         id="tspan800"
         style="font-size:20.4946px;fill:#2c3a79;fill-opacity:1;stroke-width:0.320228"
         x="32.165516"
         y="151.21648">print(&quot;IT Kotiki&quot;)</tspan></text>
    <text
       xml:space="preserve"
       transform="scale(0.26458333)"
       id="text854"
       style="font-size:64px;white-space:pre;shape-inside:url(#rect856);display:inline;fill:#2c3a79;fill-opacity:1"
       inkscape:label="text854" />
    <text
       xml:space="preserve"
       transform="scale(0.26458333)"
       id="text860"
       style="font-size:64px;white-space:pre;shape-inside:url(#rect862);display:inline;fill:#2c3a79;fill-opacity:1"
       inkscape:label="text860" />
    <path
       style="fill:#2c3a79;fill-opacity:1;stroke-width:0.194873"
       id="path304"
       d="m 38.811089,46.250477 c 1.018227,0.699565 2.137439,1.24369 3.267594,1.754209 1.174038,0.493586 2.215299,1.217617 3.279756,1.892184 1.707794,1.117497 3.446754,2.179416 5.321199,3.021892 2.10771,0.883555 4.29345,1.581537 6.475183,2.274656 2.354046,0.755394 4.716719,1.485453 7.058697,2.274861 2.042827,0.683484 4.053794,1.446675 6.035844,2.277602 1.80329,0.786484 3.57392,1.638589 5.3169,2.540911 1.89973,0.946521 3.88556,1.725515 5.86001,2.515502 2.06498,0.816754 4.11956,1.657568 6.21021,2.412528 2.45233,0.809641 4.8034,1.844133 7.0786,3.032103 0.939365,0.57692 1.914185,1.10802 2.883785,1.64034 0,0 -0.85753,-0.66511 -0.85753,-0.66511 v 0 c 0.16003,0.0892 0.6325,0.36849 0.48009,0.26771 -1.06969,-0.70724 -2.280595,-1.21949 -3.361685,-1.90358 -2.274,-1.172439 -4.6239,-2.187757 -7.0641,-3.003271 -2.07518,-0.75762 -4.12473,-1.576717 -6.17627,-2.391109 -1.92661,-0.76809 -3.86914,-1.510843 -5.72719,-2.424949 -1.7238,-0.864083 -3.46207,-1.70174 -5.23479,-2.470421 -1.962039,-0.818846 -3.956534,-1.560387 -5.979867,-2.22895 -2.326266,-0.779744 -4.675784,-1.49172 -7.013278,-2.23962 -2.183439,-0.694893 -4.372177,-1.392246 -6.477941,-2.285887 -0.394465,-0.178866 -0.805836,-0.326664 -1.18384,-0.535684 -1.052244,-0.581858 -2.038584,-1.267663 -3.062992,-1.891734 -1.399356,-0.886514 -2.788376,-1.807033 -4.325812,-2.464971 -0.813168,-0.3651 -1.585542,-0.689532 -2.313734,-1.21396 0,0 -0.488839,-0.185252 -0.488839,-0.185252 z" />
    <path
       style="fill:#2c3a79;fill-opacity:1;stroke-width:0.194873"
       id="path306"
       d="m 40.395177,46.354073 c 1.771735,-0.234428 3.527468,-0.525463 5.310261,-0.683291 2.768239,-0.04432 5.532793,0.01253 8.295885,-0.181067 3.119279,-0.336296 6.241486,-0.63735 9.365907,-0.925509 3.653006,-0.294716 7.263762,-0.89809 10.871482,-1.501441 3.432,-0.610938 6.89382,-1.038437 10.35503,-1.461336 2.83282,-0.338233 5.6613,-0.70941 8.48563,-1.10744 2.05117,-0.321705 4.112825,-0.573759 6.185305,-0.724049 1.165333,-0.08785 2.334963,-0.08201 3.501763,-0.136276 0.31174,0.0214 0.77211,-0.132618 0.36753,-0.430217 -0.0317,0.01042 -0.11445,0.0278 -0.0178,0.100267 0.0436,0.03266 0.10765,0.02448 0.16123,0.03762 0.11033,0.02706 0.22067,0.05413 0.33049,0.083 0.20812,0.05471 1.1347,0.30771 1.27396,0.345646 2.671,0.724492 5.34021,1.456992 8.03097,2.111258 3.49056,0.802741 7.02743,1.399936 10.5579,2.014507 4.17195,0.70917 8.30774,1.587308 12.4197,2.563306 4.14399,1.008888 8.26873,2.084117 12.42978,3.027644 3.29318,0.726533 6.59177,1.428676 9.86318,2.241915 2.38769,0.625369 4.75121,1.331242 7.1281,1.9926 0.58046,0.04429 1.51372,0.620472 2.07291,0.542018 0,0 -0.94383,-0.69185 -0.94383,-0.69185 v 0 c -0.77363,-0.308263 -1.56362,-0.573086 -2.37642,-0.771718 -2.3579,-0.644954 -4.70195,-1.336515 -7.07059,-1.945042 -3.25553,-0.799279 -6.53801,-1.486318 -9.8142,-2.202427 -4.15081,-0.939068 -8.2675,-2.003652 -12.4012,-3.008579 -4.12355,-0.980516 -8.2697,-1.871273 -12.45477,-2.578357 -3.54671,-0.629567 -7.09959,-1.245127 -10.60595,-2.061625 -2.72358,-0.669393 -5.42947,-1.404053 -8.12097,-2.18378 -0.23062,-0.06552 -1.63632,-0.541239 -1.88817,-0.460982 -0.16982,0.05412 -0.15391,0.100167 -0.17259,0.216474 0.0369,0.03879 0.0784,0.09803 0.14238,0.101862 0.0393,0.0024 0.14878,-0.04595 0.11371,-0.0291 -0.129,0.06198 -0.17475,0.05439 -0.33937,0.08324 -1.13045,0.100779 -2.269073,0.09394 -3.398733,0.21014 -2.05046,0.196998 -4.093875,0.450985 -6.127135,0.774424 -2.79427,0.423288 -5.59586,0.802239 -8.39974,1.161882 -3.43777,0.429715 -6.86811,0.910575 -10.27681,1.520869 -3.6037,0.611229 -7.214185,1.206375 -10.865071,1.494355 -3.130928,0.272517 -6.256607,0.578334 -9.381102,0.912093 -2.728472,0.18719 -5.458893,0.125456 -8.189029,0.258093 -1.706821,0.18005 -3.387427,0.472031 -5.056803,0.857318 0,0 0.637091,0.433554 0.637091,0.433554 z" />
    <path
       style="fill:#2c3a79;fill-opacity:1;stroke-width:0.194873"
       id="path308"
       d="m 98.711577,71.853835 c 1.459943,-0.64552 2.911493,-1.30517 4.403093,-1.8813 2.20805,-0.796472 4.57407,-1.00698 6.90036,-1.260235 2.45676,-0.189254 4.8916,-0.537574 7.31533,-0.957977 3.2294,-0.586229 6.49782,-0.927546 9.75861,-1.304297 3.71497,-0.428167 7.40427,-1.031253 11.07037,-1.744345 3.49158,-0.729904 6.9318,-1.65612 10.35729,-2.6269 2.59289,-0.778854 5.15554,-1.650819 7.65195,-2.68027 1.81328,-0.810215 3.59847,-1.679951 5.34746,-2.611148 0.94546,-0.491826 1.856,-1.064552 2.86337,-1.439157 0.53203,-0.197845 0.78689,-0.242533 1.33064,-0.373048 1.15927,-0.217098 2.34498,-0.175714 3.51391,-0.311596 0.48753,-0.089 0.40923,0.05396 0.34063,-0.357582 0,0 -0.83227,-0.545155 -0.83227,-0.545155 v 0 c -0.69034,-0.168522 -0.37303,-0.168717 -0.94863,-0.07578 -1.16572,0.13531 -2.35136,0.09577 -3.5015,0.347691 -0.55916,0.146867 -0.78645,0.189998 -1.33412,0.404664 -0.99767,0.391053 -1.90708,0.960742 -2.83993,1.470175 -1.73244,0.933071 -3.50159,1.804103 -5.29406,2.626107 -2.46899,1.042393 -5.01309,1.908024 -7.57829,2.706236 -3.41197,1.004004 -6.85831,1.899028 -10.34932,2.615577 -3.65041,0.713969 -7.31759,1.355133 -11.02087,1.762957 -3.29062,0.369097 -6.59391,0.66203 -9.85261,1.251553 -2.41298,0.410024 -4.83218,0.768551 -7.27498,0.9744 -2.29033,0.276184 -4.62299,0.521567 -6.76654,1.397173 -1.42493,0.618897 -2.807213,1.315777 -4.185373,2.024507 0,0 0.92548,0.58775 0.92548,0.58775 z" />
    <path
       style="fill:#2c3a79;fill-opacity:1;stroke-width:0.194873"
       id="path310"
       d="m 40.615454,45.838549 c 0.476367,0.81335 1.273834,1.362179 2.05272,1.887644 1.109764,0.671136 2.212743,1.346675 3.279494,2.079599 1.591397,1.110104 3.246585,2.17868 5.095093,2.853469 1.403023,0.407212 2.862124,0.590261 4.291955,0.89253 1.582276,0.308999 3.086182,0.839172 4.561819,1.454955 1.761682,0.711182 3.583876,1.262823 5.360748,1.938442 2.154719,0.778423 4.228259,1.735936 6.252829,2.783337 1.31833,0.705598 3.51104,2.103824 5.78388,3.184482 1.73843,0.697022 3.45098,1.443548 5.14481,2.234757 1.69045,0.788866 3.42181,1.495108 5.1592,2.182727 2.03847,0.771845 3.988,1.734355 5.92841,2.706004 1.5699,0.7951 3.126425,1.61339 4.747365,2.31005 0.51413,0.19706 1.01779,0.44815 1.57257,0.51392 0,0 -1.28561,-0.93457 -1.28561,-0.93457 v 0 c -0.53774,-0.14332 -1.05713,-0.33803 -1.56781,-0.55378 -1.60418,-0.69285 -3.146035,-1.50355 -4.703005,-2.287534 -1.94839,-0.970156 -3.90871,-1.923509 -5.94957,-2.705017 -1.73446,-0.690045 -3.46361,-1.396604 -5.15082,-2.18822 -1.69353,-0.789644 -3.41065,-1.523674 -5.14159,-2.234377 -0.28967,-0.140092 -0.56684,-0.307073 -0.86903,-0.420277 -0.16847,-0.06316 0.61937,0.358601 0.46464,0.26878 -1.77322,-1.029227 -3.54872,-2.055304 -5.35943,-3.023264 -2.02985,-1.041154 -4.10978,-1.98732 -6.264214,-2.769735 -1.78416,-0.677899 -3.612759,-1.236926 -5.378732,-1.957961 -1.475195,-0.607156 -2.980401,-1.123291 -4.561698,-1.417322 -1.424621,-0.290049 -2.878839,-0.472991 -4.267223,-0.904345 -0.228057,-0.0872 -0.676435,-0.496991 -0.684177,-0.261613 -0.0085,0.258857 0.523984,0.211702 0.678842,0.423853 0.138833,0.190191 -0.42098,-0.229535 -0.626517,-0.352166 -0.347658,-0.207438 -0.874781,-0.560022 -1.207929,-0.784132 -0.207039,-0.139278 -0.412606,-0.280563 -0.61891,-0.420838 -1.132623,-0.763451 -2.294941,-1.478296 -3.483807,-2.158822 -0.860133,-0.556059 -1.741098,-1.133311 -2.348609,-1.956751 0,0 -0.905694,-0.383825 -0.905694,-0.383825 z" />
    <path
       style="fill:#2c3a79;fill-opacity:1;stroke-width:0.194873"
       id="path312"
       d="m 61.469334,79.386196 c -0.546147,-1.2829 -0.601708,-2.70159 -0.676688,-4.06864 -0.02358,-2.572041 0.04851,-5.144361 0.06952,-7.716699 -0.01572,-2.380766 0.256242,-4.748793 0.377297,-7.123279 0.02865,-1.650352 0.06219,-3.298775 0.215193,-4.943436 -0.146439,-0.308659 0.224878,-0.638174 0.134811,-0.943703 -0.06678,-0.226512 -0.253778,-0.402977 -0.380667,-0.604458 0,0 -0.612963,-0.317394 -0.612963,-0.317394 v 0 c -0.188695,0.04335 -0.425173,0.0022 -0.566085,0.130132 -0.244964,0.222436 0.117642,0.751685 -0.122373,0.963561 -0.134225,1.653983 -0.163412,3.310361 -0.178304,4.968912 -0.101675,2.392271 -0.321512,4.781345 -0.280293,7.178037 -0.0057,2.587638 -0.10223,5.176366 0.0031,7.762976 0.102589,1.402511 0.166736,2.861571 0.745145,4.172551 0,0 1.272243,0.54144 1.272243,0.54144 z" />
    <path
       style="fill:#2c3a79;fill-opacity:1;stroke-width:0.194873"
       id="path314"
       d="m 143.21735,87.961566 c -0.17878,0.88845 -0.35471,1.77431 -0.46617,2.67314 -0.14771,0.6872 -0.57289,0.41123 0.87745,0.85822 0.0626,0.0194 -0.0823,-0.10131 -0.10521,-0.16059 -0.10768,-0.27866 -0.13726,-0.62643 -0.17911,-0.91076 -0.192,-1.6729 0.0772,-3.35537 0.25194,-5.01955 0.18471,-1.61876 0.5129,-3.21485 0.8566,-4.8079 0.43265,-1.81601 0.46392,-3.68258 0.39134,-5.53448 -0.13621,-1.872011 -0.16824,-3.746511 -0.13673,-5.622084 0.0575,-1.47939 0.0197,-2.958951 -0.0216,-4.438006 -0.11915,-0.204682 0.086,-1.277278 0.0109,-1.486566 -0.063,-0.17559 -0.2146,-0.309139 -0.3219,-0.463709 0,0 -0.92446,-0.464759 -0.92446,-0.464759 v 0 c -0.13081,0.04036 -0.31018,0.01538 -0.39242,0.120917 -0.0837,0.107436 0.0299,1.347849 0.004,1.506084 0.0557,1.483289 0.1071,2.967022 0.0657,4.451516 -0.007,1.885436 0.0373,3.770066 0.17767,5.651336 0.0808,1.850711 0.0898,3.709251 -0.31288,5.532001 -0.29434,1.63197 -0.58342,3.26723 -0.65642,4.92568 -0.13554,1.70223 -0.2909,3.4141 -0.1116,5.11938 0.007,0.0551 0.13756,1.106 0.22416,1.15864 1.41087,0.85747 1.18122,0.81108 1.18876,0.0253 0.0341,-0.97357 0.11994,-1.95507 -0.026,-2.92423 0,0 -0.39288,-0.18957 -0.39288,-0.18957 z" />
    <path
       style="fill:#2c3a79;fill-opacity:1;stroke-width:0.194873"
       id="path316"
       d="m 107.45068,88.393106 c -0.0871,1.46567 -0.49829,2.86754 -0.97662,4.25307 -0.61469,1.66369 -1.5328,3.270778 -2.87501,4.503018 -0.2719,0.24963 -0.57789,0.46267 -0.86683,0.69399 -1.81604,1.26156 -3.395933,1.68901 -5.644833,1.6793 -0.47554,-0.003 -0.94945,-0.0537 -1.42417,-0.0804 -1.183125,-0.20504 -1.632925,-0.23806 -2.766175,-0.60902 -0.4275,-0.13995 -0.8353,-0.33021 -1.25596,-0.48805 -0.0606,-0.0227 0.22596,0.12116 0.17501,0.0824 -1.94752,-1.47988 -0.28632,-0.0572 -2.06774,-1.65169 -1.07039,-1.09296 -1.94213,-2.340978 -2.23937,-3.835048 -0.16177,-0.81317 -0.12179,-1.1866 -0.11932,-1.99763 0.14063,-1.99935 1.18091,-3.65652 2.43275,-5.19651 1.36696,-1.47997 2.98486,-2.71148 4.70119,-3.79473 0.30494,-0.15586 0.59555,-0.34081 0.914795,-0.46757 1.47955,-0.5875 3.18799,-0.77773 4.767433,-0.55813 0.366,0.0509 0.72354,0.14728 1.08529,0.22091 0.47628,0.16498 1.47516,0.45848 1.8703,0.80315 0.17143,0.14954 -0.72794,-0.4547 -0.6457,-0.2469 0.13666,0.3454 0.57863,0.4889 0.8465,0.75435 0.73302,0.72644 1.02682,1.15205 1.66702,1.96388 2.93957,4.45677 -1.26484,-1.97345 1.59968,2.59512 0.28663,0.45713 0.60653,0.8943 0.90979,1.34145 0,0 0.79794,0.34857 0.79794,0.34857 v 0 c -0.0901,-0.3566 -0.13266,-0.72743 -0.27024,-1.06981 -0.31651,-0.78766 -1.02473,-1.85102 -1.47277,-2.56834 -0.62851,-0.81695 -1.59035,-2.15214 -2.45303,-2.74881 -1.31498,-0.9095 -2.67198,-1.73263 -4.226293,-2.17267 -0.36278,-0.0657 -0.72182,-0.15462 -1.08835,-0.19694 -1.97244,-0.22772 -3.998995,0.16914 -5.704795,1.1405 -1.71343,1.11247 -3.35803,2.33434 -4.71012,3.84949 -1.29351,1.60405 -2.30801,3.21639 -2.47987,5.28979 -0.001,0.7872 -0.036,1.24858 0.10737,2.03672 0.27791,1.52758 1.15046,2.802778 2.23104,3.926468 0.32265,0.29503 0.62888,0.60749 0.96793,0.88506 2.19593,1.79779 4.85207,2.92167 7.702405,3.263906 1.78325,0.0859 3.615163,0.12385 5.291893,-0.574286 0.62523,-0.26033 1.32115,-0.74192 1.87967,-1.09881 0.28977,-0.23913 0.5968,-0.46028 0.86933,-0.71739 1.33839,-1.26272 2.26546,-2.89306 2.8679,-4.582018 0.4493,-1.43696 1.00832,-3.01415 0.58856,-4.51508 0,0 -0.9866,-0.4614 -0.9866,-0.4614 z" />
    <path
       style="fill:#2c3a79;fill-opacity:1;stroke-width:0.194873"
       id="path318"
       d="m 99.363967,100.78771 c 0.58777,0.51204 1.172933,1.02561 1.737023,1.5618 0.97494,0.90821 1.81963,1.92767 2.65378,2.95333 0.87218,1.07823 1.80465,2.10879 2.67111,3.19129 0.81436,1.06611 1.5553,2.18052 2.3494,3.26018 0.39698,0.4355 0.89346,1.3032 1.43054,1.58944 0.4461,0.23775 0.90664,0.44963 1.35996,0.67444 0.0596,-0.0503 0.13743,-0.0861 0.17899,-0.15108 0.23622,-0.36939 0.16682,-0.95896 0.16478,-1.35917 -0.006,-1.23128 -0.0226,-0.13192 0.007,-1.41289 0.0667,-1.36586 0.23279,-2.72473 0.35561,-4.0867 0.11161,-0.52752 0.018,-1.37202 0.37947,-1.82934 0.12849,-0.16258 0.25125,-0.14325 0.43401,-0.16575 0.78364,0.10539 1.5718,0.0851 2.35805,0.0261 0.18414,-0.0235 0.36852,-0.0456 0.55242,-0.0709 0.51357,-0.0708 0.66029,-0.11457 1.18821,-0.13318 0.5814,-0.0204 1.16283,0.0418 1.74239,0.0748 0.13334,-0.0193 0.27594,-0.007 0.39999,-0.0577 0.8005,-0.32693 -0.33608,-1.92101 -0.55953,-2.29283 -1.31476,-1.93254 -2.94236,-3.640226 -4.4635,-5.420666 -0.20123,-0.25342 -0.40245,-0.50686 -0.60368,-0.76028 0,0 -1.50503,-0.62334 -1.50503,-0.62334 v 0 c 0.18694,0.25048 0.37388,0.50099 0.56082,0.75148 1.5132,1.76561 3.13061,3.46059 4.43582,5.379576 0.17939,0.30024 0.97026,1.47546 0.8526,1.86426 -0.0542,0.17929 -0.362,0.18091 -0.47668,0.20335 -0.56954,-0.0163 -1.14145,-0.0564 -1.71128,-0.0271 -0.57449,0.0296 -0.63421,0.0682 -1.1893,0.13905 -0.18347,0.0235 -0.36776,0.0405 -0.55165,0.0606 -0.465,0.0257 -0.92489,0.0455 -1.39062,0.0239 -0.23488,-0.0109 -0.46859,-0.0493 -0.70371,-0.0473 -0.0971,7.3e-4 -0.19319,0.0183 -0.28978,0.0274 -0.0773,0.0388 -0.16744,0.0599 -0.23175,0.11639 -0.4564,0.40085 -0.4227,1.59316 -0.50532,2.12608 -0.0716,1.3806 -0.19915,2.7577 -0.2659,4.13857 -0.0225,1.74087 2e-5,-0.22623 -0.0102,1.41261 -0.003,0.33071 0.0762,0.92727 -0.1359,1.23757 -0.0235,0.0344 -0.0752,0.0395 -0.11276,0.0594 0.33438,0.20152 0.66664,0.40634 1.00315,0.6046 0.079,0.0466 -0.15907,-0.0926 -0.23038,-0.14934 -0.50541,-0.40252 -0.87423,-0.94466 -1.28304,-1.42971 -0.8239,-1.09453 -1.60305,-2.21958 -2.44257,-3.30341 -0.87466,-1.08789 -1.8127,-2.12541 -2.69938,-3.20419 -0.85504,-1.03543 -1.71408,-2.07178 -2.70762,-2.99051 -0.62061,-0.57067 -1.27659,-1.10221 -1.92768,-1.64037 0,0 -0.817913,-0.32065 -0.817913,-0.32065 z" />
    <path
       style="fill:#2c3a79;fill-opacity:1;stroke-width:0.194873"
       id="path320"
       d="m 90.968652,98.445414 c -0.51545,0.89146 -1.17366,1.688776 -1.87402,2.451316 -0.0405,0.0413 -0.82433,0.84164 -0.86167,0.87552 -0.15561,0.14124 -0.3372,0.2549 -0.48998,0.39896 -0.1529,0.14416 -0.27103,0.31994 -0.42463,0.46342 -0.22308,0.20835 -0.8657,0.68386 -1.1071,0.86629 -1.05389,0.71849 -2.08697,1.46404 -3.12691,2.20077 -1.02123,0.66863 -1.93441,1.46134 -2.80689,2.29748 -0.79244,0.75517 -1.54628,1.54457 -2.26735,2.36245 -0.47921,0.54965 -1.00652,1.06107 -1.60322,1.49289 -0.0413,0.0247 -0.34902,0.22069 -0.42542,0.22389 -0.0526,0.003 -0.1843,-0.0975 -0.13747,-0.0744 0.48986,0.24091 0.95144,0.54222 1.46667,0.72816 0.0783,0.0283 -0.0651,-0.14917 -0.0808,-0.22801 -0.0191,-0.0961 -0.0152,-0.19522 -0.0229,-0.29282 0.13835,-1.11506 0.69644,-2.14673 1.19873,-3.14661 0.80748,-1.31802 1.32709,-2.58452 1.66935,-4.07182 0.0745,-0.57509 0.3803,-1.31888 -0.0216,-1.83504 -0.59828,-0.31454 -1.17897,-0.66207 -1.79485,-0.94362 -0.0448,-0.0205 -0.66124,-0.0143 -0.66777,-0.0141 -0.57934,0.009 -1.15834,0.029 -1.73777,0.0371 -1.47962,-0.0131 -2.95791,-0.0618 -4.43773,-0.0389 -0.95432,-0.0265 -1.90491,0.26553 -2.85609,0.14548 0.482,0.24952 0.95512,0.51554 1.446,0.7486 0.0267,0.0128 -0.0423,-0.051 -0.0353,-0.0788 0.036,-0.14293 0.28222,-0.38716 0.35358,-0.45398 0.35729,-0.3345 0.6224,-0.50361 1.03227,-0.80033 1.51697,-1.00386 3.13297,-1.857246 4.68552,-2.808476 1.39393,-0.90351 2.7652,-1.83505 4.18874,-2.69574 1.29728,-0.75062 2.59384,-1.500758 3.74847,-2.445928 0.083,-0.0767 0.84317,-0.76444 0.89993,-0.8758 0.0977,-0.19164 0.0765,-0.42028 0.11482,-0.63041 0,0 -0.86729,-0.50631 -0.86729,-0.50631 v 0 c -0.25142,0.0851 -0.52559,0.12394 -0.75426,0.25549 -0.36202,0.20825 -0.51903,0.6648 -0.89737,0.85714 -1.1466,0.93882 -2.43067,1.68631 -3.71595,2.436808 -1.42264,0.8588 -2.78901,1.79208 -4.17254,2.70697 -1.55802,0.95406 -3.1729,1.82005 -4.70822,2.807866 -0.47747,0.33005 -1.01572,0.65066 -1.38453,1.1029 -0.002,0.003 -0.30081,0.41015 -0.19341,0.48454 0.53413,0.37 1.14729,0.6217 1.72093,0.93255 0.9458,0.039 1.8795,-0.20151 2.82651,-0.18835 1.47969,-0.0261 2.95775,0.0239 4.43724,0.0405 0.59037,-7.2e-4 1.18323,-0.0186 1.77354,-0.005 0.82628,0.0189 1.60265,0.4813 -0.71085,-0.73442 0.054,0.0261 0.11934,0.0373 0.16209,0.0783 0.30341,0.29143 0.0154,1.27902 -0.003,1.61456 -0.30301,1.45878 -0.82228,2.76716 -1.62666,4.04621 -0.52925,1.01707 -1.10397,2.05779 -1.30568,3.18844 2e-4,0.0281 -0.009,0.56874 0.043,0.60806 1.15926,0.88478 1.42819,1.39374 2.35156,0.76987 0.59497,-0.45033 1.12162,-0.97608 1.6022,-1.53765 0.71176,-0.81537 1.45003,-1.60886 2.22325,-2.37137 0.85517,-0.83034 1.72211,-1.64997 2.72452,-2.31966 1.00604,-0.75771 1.97952,-1.55494 3.02191,-2.26806 1.05535,-0.81131 0.0887,-0.0517 1.09581,-0.89075 0.17,-0.14162 0.36192,-0.26037 0.51731,-0.41668 0.14144,-0.14229 0.23788,-0.32056 0.3672,-0.47312 0.26307,-0.31034 0.5682,-0.58644 0.82127,-0.90513 0.69411,-0.8133 1.2401,-1.639896 1.58462,-2.646046 0,0 -0.95776,-0.52505 -0.95776,-0.52505 z" />
    <path
       style="fill:#2c3a79;fill-opacity:1;stroke-width:0.194873"
       id="path322"
       d="m 61.857554,80.412226 c 0.872316,1.01062 1.951904,1.83801 3.033144,2.63257 1.560882,1.12663 3.188704,2.15987 4.855404,3.13543 1.9085,1.0223 3.69585,2.22054 5.4257,3.49747 0.87556,0.71441 1.8741,1.27027 2.77769,1.94691 0.094,0.0789 0.18945,0.15627 0.28193,0.2368 0.0496,0.0432 0.42529,0.44272 0.49571,0.46891 1.67955,0.62456 1.82999,0.8026 1.21673,0.28786 -0.68712,-0.77855 -1.52821,-1.3447 -2.41972,-1.89097 -2.83086,-1.65404 -5.70506,-3.23689 -8.61459,-4.75974 -1.595892,-0.79548 -3.146813,-1.67979 -4.755038,-2.45261 -0.193999,-0.0932 0.730007,0.44463 0.566123,0.30822 -0.215029,-0.17898 -0.481252,-0.2919 -0.72188,-0.43786 -0.830516,-0.58286 -1.723567,-1.14728 -2.380157,-1.92057 -0.0091,-0.0205 -0.03811,-0.0814 -0.02721,-0.0618 0.02595,0.047 0.02824,0.11154 0.07243,0.14369 0.09126,0.0664 0.20886,0.0903 0.312746,0.13659 0.151318,0.0675 0.302822,0.1345 0.452858,0.20452 0.652449,0.30443 0.618569,0.29742 1.312947,0.65934 0.274198,0.1499 0.552677,0.29281 0.822596,0.44971 0.168043,0.0977 -0.676237,-0.38211 -0.516797,-0.27196 0.314252,0.21709 0.65772,0.39244 0.983008,0.59404 1.037014,0.64267 2.052654,1.318 3.073344,1.98406 2.1277,1.33104 4.12851,2.85457 6.31862,4.09437 0.79698,0.45116 1.60796,0.87916 2.41195,1.31875 0.33635,0.10444 1.3828,0.74531 1.79337,0.70815 0.28332,-0.0256 0.0748,-0.37254 -0.0931,-0.54371 -0.22159,-0.2258 -0.50028,-0.3929 -0.75043,-0.58936 -3.0314,-2.19969 -6.12101,-4.32779 -9.25379,-6.39257 -1.26147,-0.82991 -2.560045,-1.60493 -3.86336,-2.37211 0,0 -1.428391,-0.53063 -1.428391,-0.53063 v 0 c 1.301209,0.77628 2.608729,1.54366 3.876827,2.36961 3.094084,2.03341 6.150264,4.12494 9.117084,6.32658 0.23042,0.18043 0.45034,0.37393 0.69124,0.5413 0.0974,0.0676 0.21459,0.10429 0.31941,0.16082 0.0965,0.052 -0.21887,-0.0381 -0.32322,-0.0737 -0.52116,-0.17764 -0.84239,-0.34936 -1.36077,-0.59158 0.12072,0.0755 0.48514,0.29852 0.36218,0.22643 -1.76128,-1.03257 -3.43611,-2.18137 -5.13091,-3.30959 -0.3893,-0.25916 -0.78104,-0.51495 -1.17156,-0.77241 -2.341023,-1.53434 -4.680401,-3.07248 -7.193871,-4.34337 -0.625071,-0.3247 -0.754634,-0.40275 -1.356389,-0.67935 -0.06954,-0.0319 -0.695875,-0.32376 -0.842694,-0.32273 -0.300633,0.003 -0.247304,0.10824 -0.238209,0.26654 0.643222,0.82235 1.591287,1.38736 2.431533,2.00222 2.493913,1.52517 5.15232,2.76771 7.73901,4.13678 2.11354,1.11002 3.6751,1.95119 5.77251,3.19994 0.86985,0.52777 1.70676,1.05762 2.35527,1.83546 0.71835,0.64913 0.24738,0.26959 2.11132,1.03006 0.0403,0.0165 -0.0615,-0.06 -0.0926,-0.0895 -0.23597,-0.22427 -0.47221,-0.44875 -0.72437,-0.65651 -0.90953,-0.71611 -1.96649,-1.24505 -2.86172,-1.98292 -1.75608,-1.28618 -3.55614,-2.51331 -5.49308,-3.541 -1.69115,-0.98035 -3.34486,-2.01712 -4.931825,-3.14789 -1.156955,-0.82994 -2.312195,-1.6809 -3.300718,-2.6969 0,0 -1.136215,-0.47185 -1.136215,-0.47185 z" />
    <path
       style="fill:#2c3a79;fill-opacity:1;stroke-width:0.194873"
       id="path324"
       d="m 117.84593,97.695884 c -0.42571,-0.008 -0.85604,-0.084 -1.25141,-0.2398 -0.1167,-0.046 -0.44653,-0.22544 -0.33648,-0.16626 1.14325,0.6147 1.35555,0.88577 1.04638,0.51438 0.04,0.0245 0.0736,0.0636 0.1198,0.0735 0.15926,0.0339 1.52157,-0.36558 1.7197,-0.40997 1.38274,-0.69168 2.84177,-1.22187 4.33125,-1.65745 2.07761,-0.60105 4.24629,-0.76265 6.37746,-1.100858 1.97672,-0.35417 3.86986,-1.0322 5.75423,-1.6892 1.44312,-0.51609 2.91374,-0.95815 4.35669,-1.47393 1.11014,-0.38057 2.19528,-0.82165 3.28533,-1.25094 0.41711,-0.18916 0.24301,-0.0722 0.53781,-0.3285 0,0 -1.66044,-1.04405 -1.66044,-1.04405 v 0 c -0.44397,0.11787 -0.21657,0.0467 -0.68053,0.21821 -1.07385,0.4435 -2.15065,0.88066 -3.2505,1.26246 -1.44021,0.50722 -2.8984,0.96656 -4.33303,1.48892 -1.86724,0.66902 -3.75092,1.32617 -5.71918,1.66646 -2.12249,0.34174 -4.28049,0.53902 -6.3441,1.15594 -0.82332,0.251928 -1.62409,0.523898 -2.41931,0.849448 -0.13851,0.0567 -1.19536,0.5083 -1.35676,0.56503 -0.21155,0.0744 -0.43119,0.12556 -0.64679,0.18833 -0.14464,0.0643 -0.28581,0.13648 -0.43392,0.19307 -0.15967,0.061 -1.04966,0.26948 -1.13469,0.44633 -0.0337,0.07 -0.004,0.15424 -0.004,0.23137 0.5489,0.66565 1.79112,1.28074 2.70781,0.9516 0,0 -0.66524,-0.44407 -0.66524,-0.44407 z" />
    <path
       style="fill:#2c3a79;fill-opacity:1;stroke-width:0.194873"
       id="path326"
       d="m 42.988383,88.152956 c -0.01698,-1.21688 0.155536,-2.43024 0.292388,-3.63815 0.218454,-1.70882 0.456924,-3.41401 0.607538,-5.12988 0.130653,-1.84306 0.299035,-3.68338 0.455711,-5.524511 0.209596,-1.90969 0.215868,-3.83065 0.308366,-5.746931 0.147624,-2.196816 0.351252,-4.386727 0.396809,-6.588531 0.01374,-2.175506 -0.159417,-4.345599 -0.401282,-6.506947 -0.173312,-1.233037 -0.28586,-2.472523 -0.42437,-3.709225 -0.13141,-0.68359 -0.136884,-1.410714 -0.364416,-2.074294 -0.135263,-0.217812 -0.06463,-0.09825 -0.208914,-0.360301 0,0 -1.024883,-0.560034 -1.024883,-0.560034 v 0 c -0.310801,0.06868 -0.183543,0.0096 -0.395568,0.14691 -0.08393,0.599543 0.308945,1.415307 0.293858,2.039919 0.154729,1.247096 0.290121,2.496358 0.48581,3.738585 0.271228,2.15497 0.444889,4.320987 0.426647,6.493421 -0.03841,2.199792 -0.248415,4.387486 -0.398676,6.581931 -0.09642,1.909456 -0.150542,3.821757 -0.337744,5.725777 -0.152746,1.84288 -0.302651,3.686051 -0.44521,5.529651 -0.140928,1.73242 -0.321295,3.46066 -0.48107,5.19138 -0.09271,1.24983 -0.189403,2.50231 -0.112558,3.75568 0,0 1.327564,0.63555 1.327564,0.63555 z" />
    <path
       style="fill:#2c3a79;fill-opacity:1;stroke-width:0.194873"
       id="path330"
       d="m 42.187129,87.693006 c -0.777702,-0.0465 -1.548955,-0.0699 -2.322314,0.0282 -0.625898,0.0519 -1.198299,0.27264 -1.730521,0.58143 -0.517245,0.31898 -0.987703,0.69657 -1.454517,1.07844 -0.452765,0.39175 -0.863524,0.8242 -1.244604,1.28001 -0.390206,0.47807 -0.711404,0.99997 -1.005855,1.53596 -0.298374,0.58855 -0.623137,1.16521 -0.896528,1.76498 -0.247778,0.60141 -0.407234,1.231458 -0.609539,1.847618 -0.171783,0.49523 -0.316123,0.99519 -0.42101,1.50722 -0.128669,0.61626 -0.245275,1.2334 -0.33665,1.85573 -0.0768,0.63605 -0.18241,1.269166 -0.240554,1.907066 -0.02044,0.59756 -0.05239,1.19434 -0.0866,1.79134 -0.04975,0.66604 -0.02647,1.33318 -0.0064,1.99963 0.0033,0.60721 -0.02827,1.21317 0.0071,1.81989 0.04685,0.58478 0.13874,1.16463 0.274608,1.73616 0.12663,0.59274 0.426751,1.11264 0.794649,1.5959 0.439354,0.49159 0.879339,0.98305 1.32205,1.47206 0.461658,0.51675 1.052473,0.89627 1.647996,1.2553 1.230898,0.70015 2.421941,1.47762 3.819146,1.81489 0.792739,0.15257 1.599726,0.22358 2.406784,0.2521 0.853289,0.0466 1.686434,-0.129 2.510774,-0.31538 0.969066,-0.20592 1.892805,-0.52687 2.769157,-0.97102 0.933207,-0.55527 1.680317,-1.32377 2.359688,-2.14019 0.728543,-0.94177 1.306684,-1.97727 1.865013,-3.01727 0.481905,-0.90886 0.746444,-1.88671 0.89687,-2.89011 0.0643,-0.8433 0.07218,-1.68284 0.277722,-2.50824 0.29614,-0.93852 0.64866,-1.85408 0.874344,-2.81164 0.245377,-1.135136 0.160612,-2.278106 -0.09725,-3.400096 -0.418289,-1.38829 -1.000032,-2.726038 -1.571875,-4.061208 -0.5139,-1.22231 -1.181907,-2.37033 -1.953641,-3.45769 -1.22519,-1.75916 -2.534475,-2.25317 -4.485018,-3.29682 -0.54209,-0.21014 -1.118388,-0.34694 -1.70749,-0.33227 -0.176689,0.005 -0.38731,-0.0439 -0.526461,0.0606 -0.106148,0.0797 -0.04281,0.25538 -0.06421,0.38308 0,0 0.591397,0.40162 0.591397,0.40162 v 0 c 0.328438,0.0863 0.650079,0.20156 0.985314,0.25907 0.192849,0.0331 0.392039,-1.3e-4 0.587621,0.0108 0.579213,0.0323 1.134185,0.14944 1.660901,0.3892 -0.376063,-0.22054 -0.754116,-0.43798 -1.128184,-0.66162 -0.182505,-0.10911 0.37492,0.20301 0.553454,0.31802 0.703686,0.45327 1.258227,1.05693 1.741418,1.71955 0.782133,1.07797 1.473002,2.21349 1.994047,3.43138 0.563661,1.32443 1.140773,2.64975 1.563834,4.022928 0.259934,1.09473 0.365502,2.21059 0.128107,3.32187 -0.225124,0.954256 -0.581098,1.866336 -0.889029,2.797856 -0.236468,0.82796 -0.22969,1.67599 -0.287779,2.52813 -0.131305,0.98653 -0.384592,1.94665 -0.851739,2.84091 -0.546265,1.03145 -1.114085,2.05944 -1.845855,2.98343 -0.668156,0.79232 -1.402538,1.54329 -2.32378,2.06924 -0.870681,0.42667 -1.79009,0.72921 -2.74674,0.92711 -0.817063,0.17285 -1.640946,0.32685 -2.483021,0.27149 -0.800597,-0.0402 -1.603465,-0.11361 -2.385499,-0.28924 -0.339174,-0.0944 -0.39486,-0.10052 -0.721215,-0.22859 -0.673199,-0.26418 -2.45653,-1.27693 0.342307,0.26844 -0.594898,-0.3443 -1.19082,-0.70822 -1.665922,-1.2008 -0.446976,-0.48173 -0.866415,-0.98657 -1.325104,-1.45864 -0.376207,-0.45429 -0.689503,-0.94713 -0.824308,-1.52026 -0.142664,-0.56323 -0.248147,-1.13442 -0.300831,-1.7123 -0.04292,-0.60489 -0.0025,-1.20889 -0.0112,-1.81454 -0.01836,-0.66321 -0.05635,-1.32627 -0.0088,-1.98953 0.03318,-0.59602 0.06862,-1.19185 0.08011,-1.78871 0.05037,-0.63885 0.14537,-1.27338 0.213016,-1.91068 0.07726,-0.621496 0.193515,-1.235706 0.322214,-1.849176 0.104898,-0.50664 0.240554,-1.00278 0.406201,-1.49446 0.183994,-0.61789 0.358708,-1.23835 0.554213,-1.85304 0.264202,-0.599928 0.578186,-1.178568 0.862286,-1.769968 0.274913,-0.53349 0.555457,-1.06713 0.928202,-1.54564 0.334844,-0.4689 0.701536,-0.91427 1.130048,-1.30911 0.42499,-0.39621 0.862606,-0.78401 1.348223,-1.1117 0.473774,-0.30727 0.987995,-0.51027 1.548259,-0.62727 0.683667,-0.10611 1.367394,-0.19147 2.061598,-0.18894 0,0 -0.868744,-0.60256 -0.868744,-0.60256 z" />
    <path
       style="fill:#2c3a79;fill-opacity:1;stroke-width:0.194873"
       id="path332"
       d="m 39.955094,98.745994 c 1.398442,0.43478 2.863896,0.5641 4.320721,0.6735 1.548534,0.0651 3.065727,0.37539 4.600284,0.54844 0.140862,0.0181 1.434168,0.0599 1.506135,-0.0782 0.06738,-0.12919 -0.08785,-0.27637 -0.131781,-0.41454 0,0 -0.813896,-0.50986 -0.813896,-0.50986 v 0 c -0.216137,-0.0483 -0.427399,-0.12569 -0.648412,-0.14515 -0.127993,-0.0113 -0.253329,0.044 -0.381393,0.0545 -0.44133,0.0362 -0.62202,0.01 -1.080158,-0.0135 -1.497811,-0.16995 -2.984869,-0.44894 -4.498704,-0.46596 -1.395017,-0.086 -2.79806,-0.19049 -4.138924,-0.59975 0,0 1.266128,0.95052 1.266128,0.95052 z" />
    <path
       style="fill:#2c3a79;fill-opacity:1;stroke-width:0.194873"
       id="path334"
       d="m 45.304412,94.701656 c -0.394377,0.0372 -1.114671,0.598258 -1.483478,0.502958 -0.04475,-0.0115 -0.06923,-0.0591 -0.103843,-0.0887 0.446168,0.21949 0.861976,0.5088 1.338503,0.65848 0.08166,0.0256 -0.02376,-0.16364 -0.02542,-0.24604 -0.0023,-0.11342 0.0066,-0.22683 0.01363,-0.34007 0.03417,-0.549078 0.133254,-1.076978 0.242193,-1.616518 0.417466,-1.37622 0.710409,-2.72183 0.690444,-4.15816 -0.134428,-0.23349 -0.268857,-0.46699 -0.403283,-0.70049 0,0 -0.887558,-0.42776 -0.887558,-0.42776 v 0 c -0.114152,0.11122 -0.228309,0.22243 -0.342464,0.33364 0.01168,0.47005 0.03037,0.76521 -0.0072,1.24155 -0.0786,0.9968 -0.370397,1.95517 -0.580255,2.92979 -0.117753,0.66623 -0.237493,1.33949 -0.227174,2.018248 0.0015,0.0984 -0.05741,0.2288 0.01882,0.29465 0.446437,0.38562 0.982676,0.66322 1.474012,0.99484 0.514828,0.0224 0.867125,-0.52111 1.250504,-0.7813 0,0 -0.96744,-0.615128 -0.96744,-0.615128 z" />
    <path
       style="fill:#2c3a79;fill-opacity:1;stroke-width:0.194873"
       id="path336"
       d="m 37.844919,97.746474 c -0.315992,0.1309 -0.75235,0.22241 -0.963657,0.51562 -0.0247,0.0342 -0.07946,0.0942 -0.04364,0.11777 0.430253,0.28288 0.905183,0.49749 1.357775,0.74624 1.021607,-0.0254 2.045351,-0.0619 3.067361,-0.10331 1.457432,-0.14282 2.918161,-0.15926 4.380815,-0.11773 1.372856,0.0624 2.742929,0.1681 4.114924,0.24514 0.527115,0.0177 1.059954,0.10214 1.57498,-0.0276 0,0 -1.430872,-0.98107 -1.430872,-0.98107 v 0 c -0.545322,-0.0296 -1.091302,-0.0166 -1.637014,-0.0431 -1.354279,-0.0591 -2.707246,-0.14096 -4.0614,-0.20197 -1.440381,-0.032 -2.874073,0.042 -4.307155,0.18636 -0.948491,0.0695 -1.896424,0.16808 -2.846446,0.20122 0.346573,0.22179 0.696534,0.43878 1.039718,0.66538 0.0277,0.0183 -0.09097,-0.008 -0.09201,-0.0396 -0.0015,-0.0471 0.05318,-0.0798 0.08709,-0.1137 0.183801,-0.18407 0.391719,-0.3486 0.56139,-0.54718 0,0 -0.801863,-0.50234 -0.801863,-0.50234 z" />
    <rect
       style="fill:#2c3a79;fill-opacity:1;stroke-width:0.225875"
       id="rect6104"
       width="0.021046078"
       height="1.3256955"
       x="98.711914"
       y="71.315987" />
    <path
       style="fill:#2c3a79;fill-opacity:1;stroke-width:0.225875"
       id="path13000"
       d="m 96.741317,70.072865 c -1.01514,-0.16797 -1.943545,-0.634208 -2.871175,-1.062438 -0.98055,-0.506863 -1.9946,-0.911484 -3.05045,-1.221846 -0.96849,-0.227466 -1.92102,-0.498565 -2.81388,-0.946964 2.97948,1.819928 -0.64323,-0.532244 -1.15389,-0.850695 -1.56222,-0.980861 -3.14752,-1.913474 -4.86358,-2.579377 -0.95777,-0.329155 -1.92913,-0.621202 -2.909,-0.874656 -1.31301,-0.386488 -2.65569,-0.634413 -3.98828,-0.934574 -1.30901,-0.355796 -2.5663,-0.877531 -3.81463,-1.406915 -1.38539,-0.586253 -2.70559,-1.312245 -4.023511,-2.037538 -0.246895,-0.129629 -0.493886,-0.259068 -0.740688,-0.388883 -0.650743,-0.342289 -0.934862,-0.488872 -1.579586,-0.845302 -0.246496,-0.136271 -0.974777,-0.564976 -0.736369,-0.414582 0.3421,0.215806 0.689323,0.424457 1.047715,0.61099 0.26379,0.137293 -0.508987,-0.308703 -0.763478,-0.463055 -1.634057,-1.030186 -3.300058,-2.005725 -5.006995,-2.905343 0.05418,0.07204 0.108364,0.144084 0.162545,0.216127 0,0 0.657196,0.538447 0.657196,0.538447 v 0 c 0.275067,0.19563 0.550132,0.391262 0.825201,0.586892 0.06648,0.03541 0.77779,0.414132 0.812032,0.432744 0.166337,0.09041 0.658385,0.374235 0.497156,0.274732 -2.776772,-1.713694 -0.411521,-0.198196 0.110549,0.09512 2.076887,1.272211 4.186955,2.484979 6.349933,3.599648 1.32192,0.723701 2.64875,1.442902 4.03969,2.022862 1.25316,0.52592 2.51641,1.042456 3.83525,1.374859 1.33147,0.290292 2.66783,0.553003 3.97802,0.93674 0.96259,0.255806 1.92056,0.536506 2.86099,0.867046 0.50964,0.19908 1.00739,0.409861 1.49578,0.659089 0.75715,0.386388 1.06219,0.611755 -0.62082,-0.404965 -0.18127,-0.109499 0.3649,0.214906 0.54735,0.32235 1.50471,0.920579 2.90973,1.995682 4.49121,2.789596 0.89058,0.407888 1.82716,0.662383 2.77933,0.877968 1.01409,0.27442 1.96562,0.696833 2.91497,1.146993 0.906145,0.38709 1.810055,0.82529 2.797225,0.94555 0,0 -1.26581,-0.96062 -1.26581,-0.96062 z" />
    <path
       style="fill:#2c3a79;fill-opacity:1;stroke-width:0.225875"
       id="path13077"
       d="m 38.682727,46.296463 c 0.163599,0.06934 1.14729,0.804239 1.184694,0.711534 1.270021,0.20776 -0.182896,-0.631519 -0.02814,-0.542003 5.134614,2.970045 3.72383,2.252479 2.650462,1.504712 -0.106235,-0.150038 -0.25362,0.379347 -0.165687,0.48361 0.0239,0.02834 0.363655,0.124634 0.366358,0.125451 0.626944,0.149727 1.232014,0.367111 1.838262,0.584245 0.769405,0.278928 1.517182,0.61425 2.279707,0.911813 1.065225,0.366621 2.097983,0.819293 3.134628,1.260315 0.945562,0.382074 1.881069,0.788918 2.822784,1.180418 0.886387,0.343017 1.754367,0.731681 2.623902,1.115993 1.046517,0.48598 2.081237,0.996772 3.13627,1.463755 1.280762,0.546604 2.559231,1.097316 3.823119,1.683271 1.13414,0.518279 2.288532,0.988134 3.444199,1.45396 1.198773,0.504229 2.436937,0.899304 3.662377,1.328959 1.33127,0.462067 2.64931,0.958135 3.94923,1.504544 1.63507,0.700582 3.27901,1.377942 4.90088,2.109846 1.95184,0.879759 3.92574,1.707833 5.89896,2.53653 1.53263,0.664908 3.10462,1.223258 4.69167,1.736409 1.19526,0.372336 2.36512,0.820229 3.53258,1.272682 1.01024,0.389908 2.00954,0.806058 3.003415,1.236798 0.77802,0.35937 1.57341,0.67724 2.37029,0.99024 0.66155,0.24595 1.30727,0.53266 1.96412,0.79058 0.344053,0.10216 0.670153,0.21649 0.975753,0.40576 0.51249,0.23594 0.63458,0.45754 -0.766403,-0.73887 0,0 -1.50457,-1.20834 -1.50457,-1.20834 v 0 c -0.50401,-0.39549 -0.88984,-0.79396 -1.43043,-1.06277 -0.32029,-0.133043 -0.66219,-0.207305 -0.97928,-0.3507 -0.64157,-0.257336 -1.284285,-0.511613 -1.928485,-0.76209 -0.78728,-0.31532 -1.56977,-0.641951 -2.34534,-0.9861 -0.98875,-0.417308 -1.9842,-0.817876 -2.98601,-1.201758 -1.1625,-0.447087 -2.3347,-0.867996 -3.52428,-1.235328 -1.55825,-0.514364 -3.10383,-1.064914 -4.61161,-1.71928 -1.96326,-0.817188 -3.92469,-1.639768 -5.86097,-2.521476 -1.64071,-0.73647 -3.29509,-1.43982 -4.95295,-2.135426 -1.31172,-0.54164 -2.639353,-1.038549 -3.981806,-1.496295 -1.215824,-0.421988 -2.44063,-0.819588 -3.625627,-1.327582 -1.145646,-0.463641 -2.28651,-0.93984 -3.411748,-1.45287 -1.266692,-0.565455 -2.540184,-1.1144 -3.81051,-1.671265 -1.056648,-0.485896 -2.100151,-1.000444 -3.160222,-1.478686 -0.869361,-0.384664 -1.741407,-0.762813 -2.62757,-1.106178 -0.927252,-0.385949 -1.858857,-0.760972 -2.783746,-1.152754 -1.036968,-0.436885 -2.077285,-0.863707 -3.135132,-1.246311 -0.746272,-0.296581 -1.48161,-0.626266 -2.249878,-0.861625 -0.573237,-0.184455 -1.156935,-0.332426 -1.74178,-0.473893 -0.0991,-0.02317 -0.203485,-0.08969 -0.299888,-0.05682 -0.218501,0.0745 -0.470461,0.510535 -0.16407,0.616223 1.173773,0.869293 2.816972,1.699215 3.851573,2.297581 0.05273,0.0305 0.114831,0.10704 0.166522,0.07474 0.133211,-0.08324 0.20011,-0.244222 0.300164,-0.366331 -0.04461,-0.388666 -1.02469,-0.72323 -1.300159,-0.970847 0,0 -3.195627,-1.254371 -3.195627,-1.254371 z" />
    <path
       style="fill:#2c3a79;fill-opacity:1;stroke-width:0.225875"
       id="path13079"
       d="m 42.859778,47.997733 c 0.730573,-0.479838 1.564307,-0.775378 2.410191,-0.96286 0.822955,-0.164649 1.650932,-0.306724 2.481685,-0.424807 0.885773,-0.08945 1.771663,-0.177544 2.657195,-0.27004 0.942079,-0.08003 1.874545,-0.24396 2.811535,-0.367508 0.783992,-0.120726 1.567183,-0.155863 2.357462,-0.11507 0.734943,0.05422 1.470096,-0.0056 2.2039,-0.0485 0.965555,-0.07349 1.915914,-0.265571 2.875912,-0.387637 1.264439,-0.140215 2.523647,-0.321886 3.787999,-0.4628 1.401791,-0.161594 2.786503,-0.44426 4.174295,-0.697103 1.2809,-0.236368 2.56596,-0.447051 3.84687,-0.683245 1.57692,-0.285062 3.16056,-0.53071 4.74171,-0.790356 1.5884,-0.258228 3.1874,-0.440515 4.78374,-0.639231 1.57908,-0.210071 3.15011,-0.475255 4.73226,-0.661074 1.16526,-0.136413 2.33886,-0.135876 3.50929,-0.178929 1.18006,-0.08877 2.35678,-0.216363 3.52992,-0.372691 1.44951,-0.247133 2.910575,-0.387788 4.375825,-0.490106 1.0894,-0.06304 2.175703,-0.183083 3.266823,-0.21133 0.5806,0.0388 1.14096,-0.03549 1.70532,-0.161235 0.26474,-0.06232 0.53586,-0.09611 0.8001,-0.160743 0.0657,-0.01605 0.23225,-6.83e-4 0.19438,-0.05747 -0.1525,-0.228578 -0.40269,-0.371003 -0.60403,-0.556504 0,0 -1.90129,-1.424685 -1.90129,-1.424685 v 0 c -1.2194,-0.678138 -1.06245,-0.685946 -2.206743,-0.43767 -0.5471,0.089 -1.09959,0.0935 -1.65224,0.118782 -1.06943,0.06953 -2.13354,0.207357 -3.203375,0.274003 -1.47227,0.119288 -2.94009,0.27371 -4.4008,0.498816 -1.18263,0.138287 -2.3686,0.254453 -3.5584,0.304395 -1.16153,0.04521 -2.32373,0.09629 -3.47761,0.248617 -1.57505,0.203684 -3.13982,0.481508 -4.71645,0.674499 -1.59696,0.207601 -3.2016,0.359204 -4.7862,0.657044 -1.592,0.261424 -3.18939,0.487542 -4.7775,0.772479 -1.282553,0.221915 -2.568713,0.422544 -3.844021,0.686144 -1.384885,0.247247 -2.766118,0.527381 -4.16671,0.669012 -1.273904,0.157341 -2.54935,0.299578 -3.824741,0.443643 -0.959205,0.129134 -1.914804,0.307013 -2.884054,0.338721 -0.728992,0.0342 -1.457776,0.06101 -2.187129,0.01327 -0.798462,-0.0107 -1.589418,0.07454 -2.379011,0.193244 -0.92836,0.131976 -1.854001,0.282914 -2.787727,0.372808 -0.873386,0.110299 -1.747891,0.207123 -2.621667,0.313606 -0.827864,0.128659 -1.651585,0.287957 -2.457988,0.520406 -0.80256,0.314677 -1.546034,0.748095 -2.285326,1.190954 0,0 3.4766,2.271144 3.4766,2.271144 z" />
    <path
       style="fill:#2c3a79;fill-opacity:1;stroke-width:0.225875"
       id="path13081"
       d="m 43.138073,48.887261 c 1.154374,0.41717 2.319476,0.802305 3.481173,1.197561 1.124838,0.378989 2.227872,0.818637 3.340923,1.230723 1.032995,0.367255 2.013701,0.846906 2.984597,1.355109 1.087731,0.580407 2.182433,1.147066 3.275185,1.717598 1.027254,0.554311 2.076296,1.060016 3.137485,1.542811 1.100921,0.520041 2.204815,1.022925 3.341504,1.457205 1.042367,0.387076 2.086588,0.769319 3.149294,1.094993 1.19968,0.346102 2.416248,0.618248 3.612138,0.979272 1.2048,0.340979 2.37388,0.785081 3.53691,1.248383 1.17906,0.484195 2.36991,0.934021 3.56583,1.373186 1.31237,0.476558 2.60907,0.994931 3.90445,1.516688 1.35842,0.52877 2.70123,1.097363 4.05467,1.638592 1.45453,0.547799 2.88424,1.159129 4.32203,1.749702 1.26305,0.496348 2.52827,0.986751 3.78667,1.495179 0.98258,0.403165 1.98877,0.741161 2.998335,1.066582 1.06439,0.31001 2.07677,0.76851 3.08388,1.22966 0.69589,0.33618 1.412403,0.62452 2.124223,0.9231 0.0255,0.008 0.0511,0.0149 0.0766,0.0224 0,0 -3.454273,-2.781529 -3.454273,-2.781529 v 0 c -0.0659,-0.03384 -0.13184,-0.06777 -0.19776,-0.101644 -0.69596,-0.285495 -1.387,-0.58346 -2.070715,-0.898065 -1.02267,-0.455439 -2.0562,-0.88746 -3.13009,-1.204472 -0.99599,-0.330956 -1.98828,-0.673666 -2.96015,-1.073112 -1.25125,-0.495498 -2.50922,-0.973323 -3.75706,-1.477625 -1.42964,-0.592201 -2.86353,-1.173028 -4.3056,-1.733414 -1.36086,-0.560721 -2.7211,-1.122773 -4.08975,-1.663781 -1.2958,-0.515209 -2.5944,-1.023091 -3.90386,-1.501529 -1.19651,-0.447775 -2.38519,-0.915203 -3.57184,-1.389287 -1.16664,-0.453448 -2.347739,-0.864965 -3.550617,-1.208984 -1.198171,-0.344448 -2.416646,-0.609128 -3.605706,-0.986503 -1.045618,-0.345343 -2.085239,-0.70922 -3.11542,-1.099768 -1.099646,-0.417626 -2.157077,-0.929285 -3.23273,-1.405503 -1.032776,-0.470091 -2.045075,-0.982683 -3.054112,-1.503046 -1.055127,-0.540712 -2.109736,-1.082482 -3.162938,-1.627047 -0.971631,-0.500678 -1.96841,-0.943249 -3.000783,-1.300249 -1.048888,-0.375348 -2.105096,-0.728625 -3.164323,-1.072707 -1.058863,-0.322655 -2.129665,-0.603986 -3.176891,-0.965374 0,0 2.728737,2.154857 2.728737,2.154857 z" />
    <path
       style="fill:#2c3a79;fill-opacity:1;stroke-width:0.225875"
       id="path13083"
       d="m 103.74095,40.121239 c 1.2187,0.269453 2.41815,0.620196 3.61349,0.979815 0.96689,0.274171 1.92311,0.584527 2.88614,0.872093 0.96513,0.255887 1.92284,0.536668 2.87557,0.836407 0.94335,0.300896 1.88285,0.614962 2.82369,0.924282 0.86301,0.30662 1.74565,0.543671 2.64295,0.718463 0.94414,0.142191 1.88432,0.308923 2.81671,0.516215 0.95137,0.218995 1.88704,0.502609 2.82457,0.775073 0.93554,0.285828 1.87905,0.537552 2.83212,0.754718 1.05581,0.218943 2.10952,0.444824 3.1574,0.700404 0.9937,0.265612 2.00664,0.440225 3.02161,0.595464 1.13767,0.19258 2.276,0.381466 3.41179,0.585404 1.13581,0.223083 2.27693,0.419683 3.40319,0.689377 1.21385,0.322938 2.43941,0.587227 3.67328,0.816147 1.13108,0.202626 2.26889,0.361301 3.39962,0.565794 0.94191,0.152034 1.88318,0.298008 2.81597,0.501184 1.04292,0.268059 2.09218,0.510427 3.15139,0.701795 1.18841,0.214543 2.38095,0.404139 3.57067,0.61088 1.18848,0.215886 2.3756,0.4412 3.55747,0.691953 1.06337,0.225433 2.12328,0.467804 3.16295,0.788878 0.9577,0.334788 1.88009,0.764061 2.80577,1.17937 0.68992,0.338528 1.42581,0.52993 2.17863,0.649921 0.48538,0.170682 1.22859,0.03425 1.60993,0.428903 0,0 -3.56227,-2.909902 -3.56227,-2.909902 v 0 c -0.57195,-0.190564 -1.18126,-0.233967 -1.76731,-0.367699 -0.71271,-0.145176 -1.3985,-0.37518 -2.05576,-0.694212 -0.93271,-0.41293 -1.86479,-0.839109 -2.84306,-1.130411 -1.04589,-0.289557 -2.10354,-0.529586 -3.16632,-0.746108 -1.18198,-0.243616 -2.36877,-0.462596 -3.5571,-0.67174 -1.19232,-0.205356 -2.38528,-0.407122 -3.57542,-0.625299 -1.0542,-0.215357 -2.09984,-0.466947 -3.14833,-0.70832 -0.93696,-0.186963 -1.88117,-0.329416 -2.82322,-0.487067 -1.11961,-0.184816 -2.24481,-0.33393 -3.36034,-0.544532 -1.23924,-0.238535 -2.46395,-0.541401 -3.68813,-0.849015 -1.12859,-0.245086 -2.26581,-0.447973 -3.40078,-0.660057 -1.14462,-0.202175 -2.28901,-0.406521 -3.43591,-0.594825 -1.00201,-0.170872 -2.00125,-0.358432 -2.98686,-0.61162 -1.05834,-0.249743 -2.1203,-0.481918 -3.18206,-0.716032 -0.94439,-0.226051 -1.87703,-0.496648 -2.80976,-0.767656 -0.94137,-0.272195 -1.88068,-0.556485 -2.84234,-0.747308 -0.93277,-0.189896 -1.87145,-0.344293 -2.80969,-0.503177 -0.86086,-0.17516 -1.70183,-0.426316 -2.53696,-0.700206 -0.91775,-0.285045 -1.83129,-0.583867 -2.75161,-0.860327 -0.94148,-0.27863 -1.88574,-0.546713 -2.8345,-0.79868 -0.9383,-0.272046 -1.87031,-0.566792 -2.81661,-0.809903 -1.1667,-0.296452 -2.32251,-0.646187 -3.50986,-0.850776 0,0 3.22929,2.472332 3.22929,2.472332 z" />
    <path
       style="fill:#2c3a79;fill-opacity:1;stroke-width:0.225875"
       id="path13087"
       d="m 100.5441,72.528805 c 1.01894,-0.4358 2.08285,-0.75216 3.17331,-0.93216 1.02322,-0.20315 2.05712,-0.33807 3.08533,-0.51445 1.07177,-0.17007 2.14066,-0.36227 3.2001,-0.59948 0.98306,-0.26725 1.94957,-0.58949 2.93724,-0.84094 1.05284,-0.226464 2.12357,-0.351879 3.1888,-0.502123 0.93853,-0.126655 1.87377,-0.273832 2.80419,-0.451494 0.85085,-0.150435 1.68046,-0.396324 2.52715,-0.566847 1.11116,-0.244758 2.24209,-0.367187 3.36695,-0.524073 1.03314,-0.123225 2.05456,-0.322668 3.07703,-0.512998 0.7308,-0.123099 1.45473,-0.27937 2.176,-0.449829 0.57497,-0.129668 1.14487,-0.284265 1.72381,-0.394632 0.68038,-0.09579 1.35967,-0.198818 2.03788,-0.309719 0.85735,-0.124691 1.70832,-0.280971 2.55643,-0.458262 0.93478,-0.189977 1.87406,-0.355279 2.81205,-0.527711 1.05535,-0.232588 2.11034,-0.466379 3.16604,-0.697256 0.99092,-0.238786 1.97729,-0.495932 2.96985,-0.727669 1.05712,-0.243148 2.09997,-0.541683 3.15915,-0.776333 0.98075,-0.212238 1.9629,-0.423425 2.92805,-0.700722 1.0624,-0.317116 2.10901,-0.688843 3.14899,-1.074636 1.01615,-0.387497 2.03928,-0.745187 3.08882,-1.026435 1.28925,-0.331987 2.59488,-0.588021 3.89649,-0.862653 1.11397,-0.239858 2.22502,-0.493396 3.33979,-0.729449 0.72763,-0.151371 1.44964,-0.32882 2.1748,-0.491729 0.59959,-0.144702 1.1986,-0.2917 1.80116,-0.423549 0.55406,-0.119581 1.10628,-0.252979 1.64402,-0.434786 0.29167,-0.08148 0.42617,-0.255102 0.52225,-0.530083 0.01,-0.180421 -0.0701,-0.05078 -0.0675,-0.0278 0.26589,-0.128561 0.55782,-0.141873 0.84658,-0.157596 0.45104,-0.02436 0.65951,0.218819 -0.0799,-0.363024 0,0 -1.70538,-1.396843 -1.70538,-1.396843 v 0 c -0.52815,-0.372153 -0.86524,-0.724933 -1.50596,-0.630963 -0.36691,0.03555 -0.73193,0.110782 -1.03037,0.345816 -0.0752,0.08039 -0.3305,0.448185 -0.1688,0.438266 0.18938,-0.24011 -0.0394,-0.02486 -0.18489,-6.82e-4 -0.51755,0.182354 -1.04906,0.309672 -1.58566,0.420632 -0.60191,0.138682 -1.20274,0.281839 -1.80329,0.426414 -0.71086,0.172976 -1.42072,0.350307 -2.13362,0.514537 -1.09688,0.251806 -2.19032,0.518332 -3.28905,0.761625 -1.31241,0.281377 -2.62964,0.543663 -3.93318,0.864853 -1.05085,0.29498 -2.07212,0.678748 -3.09429,1.062436 -1.03609,0.373912 -2.07462,0.743728 -3.13426,1.043893 -0.97232,0.249 -1.95258,0.461815 -2.93198,0.67981 -1.04841,0.253337 -2.08514,0.553815 -3.13761,0.790518 -0.98478,0.222065 -1.95253,0.503183 -2.93078,0.751594 -1.05042,0.23561 -2.09852,0.485047 -3.15619,0.68467 -0.94501,0.163962 -1.88903,0.335272 -2.82888,0.527593 -0.8498,0.169709 -1.70473,0.308389 -2.56195,0.433533 -0.68854,0.106973 -1.38148,0.18491 -2.06683,0.310234 -0.57735,0.126166 -1.1514,0.267534 -1.72569,0.407219 -0.70891,0.165799 -1.41828,0.329092 -2.1345,0.4599 -1.0065,0.201342 -2.01878,0.371657 -3.03469,0.516337 -1.14483,0.149203 -2.29224,0.293277 -3.42364,0.528995 -0.81655,0.218065 -1.63234,0.437994 -2.46348,0.592708 -0.91471,0.174966 -1.83449,0.320297 -2.75311,0.472197 -1.05597,0.18216 -2.11962,0.325618 -3.16515,0.564485 -0.97564,0.259607 -1.94555,0.544171 -2.90177,0.870186 -0.98108,0.319202 -2.00314,0.439903 -2.99686,0.711545 -0.9724,0.216019 -1.96295,0.349551 -2.91283,0.66501 -0.94414,0.38186 -1.927633,0.68334 -2.765103,1.29272 0,0 2.255003,1.4993 2.255003,1.4993 z" />
    <path
       style="fill:#2c3a79;fill-opacity:1;stroke-width:0.225875"
       id="path13089"
       d="m 61.861847,81.820116 c 1.083665,0.3004 2.060684,0.87025 3.022942,1.44204 -5.438531,-3.17904 1.022449,0.63685 2.641692,1.52754 0.965011,0.53459 1.749911,0.97308 -1.919185,-1.12937 -0.121456,-0.0696 0.237623,0.14836 0.354638,0.22541 0.366625,0.24141 0.717724,0.50606 1.071326,0.7664 0.895972,0.65788 1.768302,1.34744 2.674692,1.99055 1.04562,0.73911 2.12356,1.42817 3.21085,2.10162 1.58861,1.03542 3.23656,1.96067 4.92595,2.80805 0.59549,0.28117 1.13546,0.66941 1.73312,0.94465 1.74646,0.49436 -0.81345,-0.92372 -2.33432,-2.06971 5.37688,3.32673 0.0709,-0.10032 -1.03613,-0.85251 -1.13453,-0.77006 -2.28831,-1.50946 -3.41143,-2.29677 -1.89479,-1.3523 -3.91283,-2.51848 -5.95536,-3.62324 -0.204456,-0.10383 -0.409151,-0.20719 -0.613369,-0.31151 -0.205052,-0.10474 -0.977599,-0.50081 -1.188311,-0.61635 -0.19707,-0.10806 -0.779062,-0.44912 -0.585277,-0.3351 2.738041,1.61105 2.667861,1.57298 1.560521,0.89724 -0.867056,-0.5377 -1.701849,-1.12617 -2.556897,-1.68293 -0.06541,0.0443 -0.721825,-0.50544 -0.738244,-0.48779 -0.385855,0.41499 0.06849,0.54121 0.342805,0.69816 -0.739628,-0.43213 -1.477316,-0.8677 -2.218881,-1.29641 -0.201678,-0.11658 0.39966,0.23965 0.599155,0.36006 0.642033,0.38749 1.277759,0.78645 1.924197,1.16636 1.143773,0.67218 2.29017,1.33974 3.435253,2.00962 0.239132,0.13485 0.477863,0.27043 0.717394,0.40456 0.238922,0.13378 0.479654,0.26422 0.717954,0.39913 0.25423,0.14393 1.01192,0.5847 0.75957,0.4374 -4.181348,-2.44076 -1.357142,-0.76124 -0.49033,-0.19489 1.3782,0.93521 2.73953,1.89494 4.13153,2.8091 1.20294,0.75721 2.36274,1.58076 3.51055,2.42067 0.11351,0.0789 1.27716,0.92855 1.28391,0.91907 0.0575,-0.0808 0.078,-0.183 0.11701,-0.27449 -0.0597,-0.21588 0.002,-0.1163 -0.24794,-0.25998 -1.80724,-1.03834 3.67773,2.21223 1.57044,0.91222 -0.22669,-0.13986 -0.4521,-0.28185 -0.67816,-0.42277 -1.88431,-1.17817 -3.71396,-2.44256 -5.5526,-3.69199 -2.23077,-1.59912 -4.60364,-2.95118 -6.967466,-4.33473 -0.928004,-0.58516 -3.610792,-1.98299 0.810167,0.46493 0.206618,0.11441 -0.398656,-0.25413 -0.596572,-0.38344 -0.463916,-0.30311 -0.594507,-0.39658 -1.044643,-0.70586 -0.703381,-0.4892 -1.394226,-0.99675 -2.102839,-1.47816 -1.306772,-0.84483 -2.673494,-1.59745 -4.011724,-2.38429 -0.871285,-0.5123 1.743584,1.02281 2.616404,1.53241 0.07227,0.0422 -0.143147,-0.0868 -0.214721,-0.13019 -1.059543,-0.68136 -1.55965,-0.74313 -3.313029,-1.34566 -0.168372,-0.0578 0.300993,0.19258 0.456953,0.27919 0.480267,0.26672 0.967466,0.52035 1.451202,0.78053 0,0 1.635536,0.65167 1.635536,0.65167 v 0 c 0.0048,-0.0699 0.05809,-0.15529 0.0145,-0.20951 -0.09966,-0.12394 -0.249997,-0.20101 -0.394955,-0.26366 -5.116804,-2.21137 -4.143304,-1.89032 -2.99819,-1.12807 1.853244,1.15842 6.283862,3.70218 0.768093,0.45929 -0.194438,-0.11431 0.790915,0.45927 0.581839,0.34551 0.09187,0.0571 0.183728,0.11402 0.275595,0.17102 0.734062,0.47583 1.440519,0.99306 2.158402,1.49338 2.071727,1.44055 4.262661,2.68652 6.448478,3.93845 -5.070968,-2.99088 0.55594,0.32936 1.44046,1.06041 1.8357,1.23318 3.65324,2.49441 5.51475,3.68761 1.43969,0.92399 2.86332,1.74389 4.36767,2.61664 0.0296,0.0171 0.52442,0.29595 0.63557,0.30735 0.0688,0.007 0.13295,-0.0386 0.19942,-0.0578 0.0581,-0.10018 0.14206,-0.18898 0.17429,-0.30054 0.027,-0.0936 -1.19737,-0.91597 -1.34268,-1.0215 -1.16339,-0.84732 -2.33296,-1.68801 -3.55005,-2.45467 -1.40262,-0.91284 -2.7762,-1.86959 -4.15588,-2.81758 -2.31899,-1.53885 -4.740276,-2.90747 -7.167313,-4.26107 0.663084,0.39173 1.325706,0.78428 1.989256,1.17519 0.225757,0.13301 -0.451053,-0.26681 -0.675879,-0.40143 -1.684831,-1.00884 -3.336869,-2.07329 -5.062269,-3.01234 -0.306994,-0.16256 -0.742414,-0.51817 -0.859043,0.11983 -0.0044,0.0243 0.725352,0.50781 0.790551,0.53645 0.869287,0.55416 1.711761,1.14964 2.583121,1.70047 2.016842,1.24856 4.064894,2.44167 6.182416,3.50405 1.16197,0.64224 1.23455,0.68961 -1.471113,-0.89029 -0.194045,-0.11331 0.386013,0.23031 0.576603,0.34952 0.50666,0.31695 0.99738,0.65903 1.48735,1.00166 1.13186,0.80289 2.2988,1.55022 3.45279,2.31946 2.09734,1.41955 4.16695,2.881 6.42095,4.04504 -1.60924,-1.28879 -1.55929,-1.51241 -2.68676,-2.02063 -0.5716,-0.30733 -1.12631,-0.64713 -1.71158,-0.92821 -0.33097,-0.16538 -0.66267,-0.32865 -0.98754,-0.50625 -0.11862,-0.0649 -0.47037,-0.26695 -0.35415,-0.19776 3.08497,1.83677 2.89898,1.72612 1.83428,1.0696 -1.09366,-0.66699 -2.17959,-1.34761 -3.2278,-2.08697 -0.90266,-0.63252 -1.76997,-1.31262 -2.6526,-1.97334 -1.5432,-1.15578 -3.151597,-2.19836 -4.888669,-3.05073 -0.403637,-0.22456 -0.805773,-0.45163 -1.206988,-0.68062 -0.143911,-0.0822 -0.574082,-0.33134 -0.431535,-0.24678 0.678964,0.40275 6.490852,3.81797 -0.9127,-0.53405 -0.917045,-0.51801 -1.853686,-1.00228 -2.887723,-1.22967 0,0 2.23071,1.7321 2.23071,1.7321 z" />
    <path
       style="fill:#2c3a79;fill-opacity:1;stroke-width:0.225875"
       id="path13091"
       d="m 99.384457,101.39773 c 0.43612,0.77301 1.009673,1.44241 1.568243,2.12447 0.40892,0.49702 0.77341,1.02877 1.16132,1.54203 0.37714,0.50921 0.78804,0.98925 1.20461,1.46506 0.59447,0.71923 1.20669,1.42211 1.84087,2.10545 0.6045,0.6295 1.21088,1.2576 1.85057,1.8504 0.35838,0.33715 0.73123,0.65659 1.11036,0.96905 0.28025,0.22242 0.54203,0.46693 0.80796,0.7063 0.19771,-0.0284 7.35206,4.45205 0.50324,0.28144 -0.10001,-0.0609 0.21138,0.10002 0.31708,0.15003 0,0 2.43086,0.98579 2.43086,0.98579 v 0 c 1.23338,0.0427 0.17442,0.0272 -2.72097,-1.70074 -0.0325,-0.0195 -0.13163,-0.0751 -0.099,-0.0559 2.80548,1.64767 3.78103,2.05645 2.69633,1.59666 -0.31034,-0.18282 -0.54324,-0.4721 -0.82544,-0.69377 -0.38622,-0.31563 -0.77584,-0.62667 -1.14351,-0.96499 -0.6566,-0.58059 -1.27179,-1.20485 -1.88237,-1.83485 -0.63782,-0.66661 -1.25581,-1.35535 -1.82019,-2.08775 -0.43219,-0.47067 -0.86639,-0.93818 -1.24362,-1.45706 -0.43019,-0.53297 -0.84017,-1.08083 -1.28055,-1.60545 -0.61657,-0.72164 -1.24038,-1.44267 -1.81976,-2.19296 0,0 -2.656083,-1.18316 -2.656083,-1.18316 z" />
    <path
       style="fill:#27336b;fill-opacity:1;stroke-width:0.225875"
       id="path13093"
       d="m 110.0544,93.326166 c 0.50917,0.8575 1.09592,1.662818 1.66376,2.480368 0.34606,0.48265 0.67488,0.97713 0.99721,1.47627 0.35176,0.54996 0.6751,1.11753 1.02975,1.66566 0.34095,0.4675 0.67713,0.93717 0.99659,1.420106 0.3195,0.43893 0.67139,0.85338 1.03438,1.25558 0.27192,0.30709 0.5723,0.58417 0.87758,0.85598 0.34935,0.34972 0.69865,0.68315 1.10359,0.96564 0.12761,0.0851 0.25523,0.17016 0.38284,0.25523 0,0 2.49108,1.01983 2.49108,1.01983 v 0 c -0.0277,-0.0449 -0.0554,-0.0898 -0.0832,-0.13469 -0.24921,-0.30824 -0.59415,-0.52987 -0.84335,-0.84199 -0.30039,-0.27927 -0.62525,-0.53134 -0.90128,-0.83718 -0.37358,-0.38377 -0.71473,-0.79696 -1.05387,-1.21211 -0.34902,-0.4733 -0.64757,-0.98416 -1.03148,-1.43165 -0.37947,-0.526766 -0.69039,-1.094416 -1.02392,-1.651396 -0.32648,-0.51954 -0.68311,-1.01805 -1.04387,-1.51344 -0.59883,-0.84074 -1.20626,-1.67528 -1.80262,-2.516938 0,0 -2.79325,-1.25527 -2.79325,-1.25527 z" />
    <path
       style="fill:#324088;fill-opacity:1;stroke-width:0.225875"
       id="path18697"
       d="m 59.8476,79.170476 c 0.0278,0.13894 0.285229,1.1274 0.330378,1.12979 0.137787,0.008 0.275332,-0.0188 0.412998,-0.0282 0.199674,-0.70341 0.299417,-1.41729 0.31023,-2.14761 -0.01311,-0.71906 0.147638,-0.75972 -0.595328,-0.92397 -0.172132,0.51287 -0.07205,1.08838 -0.05876,1.62296 0.0096,0.43825 0.01188,0.87622 -0.02836,1.31282 0.139316,-0.0197 0.320676,0.0441 0.417943,-0.0592 0.136539,-0.14491 -0.02688,-1.83549 -0.07574,-2.11845 -0.492392,-0.94537 -0.642881,-0.25427 -0.53588,0.2791 0,0 0.249503,0.13102 0.249503,0.13102 v 0 c 0.0076,-0.018 0.181957,-0.3899 0.146833,-0.45269 -0.05482,-0.098 -0.53603,-0.60893 -0.288252,-0.16905 0.06129,0.32607 0.08369,0.3955 0.104686,0.75178 0.01398,0.23724 -0.08884,1.19659 -0.01526,1.3631 0.08668,0.19619 0.273042,0.32868 0.409563,0.49301 0.02392,-0.44486 -0.0053,-0.89265 -0.0079,-1.33759 -0.01669,-0.52397 -0.118139,-1.08484 0.03352,-1.59176 -0.590898,-0.60633 -0.179868,-0.2582 -0.153403,-0.14502 0.04971,0.21258 0.01412,0.43977 0.03195,0.65453 -0.0056,0.72902 -0.104373,1.44034 -0.291741,2.14527 0.573882,0.72107 0.261564,0.39395 0.197515,0.19452 -0.09807,-0.30538 -0.156234,-0.6233 -0.241776,-0.93216 0,0 -0.352756,-0.17222 -0.352756,-0.17222 z" />
    <path
       style="fill:#324088;fill-opacity:1;stroke-width:0.225875"
       id="path18699"
       d="m 78.349352,91.191776 c 0.64538,0.44595 1.28173,0.90493 1.93095,1.34514 0.19119,0.12433 0.37941,0.2776 0.58226,0.37459 -0.20297,-0.20383 0.11648,0.005 0.22037,0.0301 0.14467,0.0456 0.28102,0.11496 0.43067,0.14005 0.16973,0.0628 0.35382,0.16998 0.52377,0.25259 1.13491,0.55216 0.28202,-0.0133 -0.27714,-0.28404 -0.65576,-0.32741 -1.32615,-0.6205 -1.97059,-0.97107 -0.64724,-0.3551 -0.53069,-0.30167 -1.34145,-0.7742 -0.051,-0.0298 0.10195,0.0597 0.15292,0.0896 -0.1823,-0.10787 -0.36396,-0.21687 -0.54691,-0.32359 -0.1206,-0.0703 -0.181,-0.0514 0.0157,0.12068 0.16691,0.14595 0.36939,0.24371 0.55536,0.36353 0.90063,0.53781 1.81638,1.04876 2.72046,1.5805 -0.0719,-0.1121 -1.14292,-0.68984 -0.37017,-0.26103 0.10151,0.0986 0.46458,0.1995 0.66153,0.26592 0.35259,-0.0591 -1.03813,-0.63406 -1.20182,-0.70182 -0.78955,-0.21684 0.48306,0.43865 0.72289,0.55107 0.57761,0.25442 -0.15598,-0.32068 -0.28354,-0.42457 -0.20398,-0.17925 -0.1488,-0.15627 -0.46096,-0.14385 0,0 0.25622,0.11755 0.25622,0.11755 v 0 c -0.87628,-0.63125 -0.41505,-0.30981 -0.25153,-0.15972 0.10958,0.0889 0.90038,0.63739 0.36212,0.30544 -0.82905,-0.39474 -0.28598,-0.0517 0.0335,0.0572 0.28855,0.12201 0.19348,0.0779 0.48497,0.21788 0.0727,0.0349 0.26819,0.16966 0.21762,0.10608 -0.067,-0.0843 -0.19606,-0.096 -0.27097,-0.17316 -0.0967,-0.0996 0.23177,0.009 0.008,-0.0549 -0.14678,-0.0497 -0.67268,-0.33232 -0.72765,-0.14262 0.17306,0.10564 0.438,0.28115 0.65301,0.38779 0.0214,0.0106 0.51534,0.21701 0.29972,0.0464 -0.15316,-0.12115 -0.33529,-0.19881 -0.50294,-0.29822 -0.64264,-0.37505 -1.28997,-0.74133 -1.93478,-1.11208 -0.42273,-0.26877 -0.64282,-0.36407 -0.85115,-0.48502 0.56935,0.33424 1.11181,0.66063 1.93088,1.11544 0.64568,0.34816 1.31679,0.64046 1.9718,0.96958 0.77611,0.37708 -0.21929,-0.27379 -0.38115,-0.24904 -0.16514,-0.0808 -0.34207,-0.19173 -0.51689,-0.23065 -0.14293,-0.0325 -0.27612,-0.096 -0.41831,-0.13219 -0.43779,-0.0417 0.20334,0.45359 0.42981,0.36232 -0.15536,-0.15403 -0.41914,-0.24091 -0.58822,-0.39867 -0.67134,-0.44963 -1.33707,-0.90732 -1.99855,-1.37182 0,0 -0.26971,-0.1073 -0.26971,-0.1073 z" />
    <path
       style="fill:#324088;fill-opacity:1;stroke-width:0.225875"
       id="path18701"
       d="m 115.54807,97.661554 c -0.14872,-0.0107 -0.52635,-0.0344 -0.67515,-0.0585 -0.0667,-0.0109 -0.25388,-0.088 -0.19629,-0.0519 1.28458,0.80306 0.84133,0.90952 1.50392,0.65726 0,0 -1.1319,-0.78202 -1.1319,-0.78202 v 0 c -1.34161,0.38585 1.22866,1.26346 1.63892,1.08693 0,0 -1.1395,-0.85174 -1.1395,-0.85174 z" />
    <path
       style="fill:#324088;fill-opacity:1;stroke-width:0.225875"
       id="path18703"
       d="m 115.80689,97.585814 c 0.82072,-0.14137 1.63837,-0.29787 2.46523,-0.39775 0.22514,0.005 0.47193,-0.0779 0.69671,-0.015 0.0232,0.007 0.0823,0.0506 0.061,0.0391 -1.20153,-0.6494 -0.69726,-0.72024 -1.41169,-0.50411 -0.65553,0.17767 -1.30554,0.37743 -1.94687,0.60239 -0.90483,0.38831 -0.97428,0.10769 0.50794,0.97483 0.63384,-0.0832 1.24771,-0.27816 1.85451,-0.47574 0.68888,-0.21454 0.42988,-0.17886 -1.05921,-0.79586 -0.13457,-0.0557 -0.65958,0.14726 -0.80344,0.17981 -0.66985,0.26047 -1.42132,0.30992 -2.0768,0.58984 -1.40622,0.0614 0.0921,1.10895 1.0012,0.80666 0.62764,-0.19818 1.24226,-0.43547 1.85595,-0.67382 0.33388,-0.14328 0.27063,-0.0238 0.079,-0.39883 0,0 -0.46133,-0.3161 -0.46133,-0.3161 v 0 c -0.60827,-0.18722 -0.35276,-0.22413 -0.77096,-0.0721 -0.61099,0.24208 -1.22633,0.47413 -1.85565,0.66285 -0.6547,0.19845 -0.32671,0.0244 0.75375,0.93958 0.0293,0.0249 0.0663,-0.0396 0.1023,-0.0523 0.0553,-0.0193 0.11143,-0.0354 0.16705,-0.0534 0.0771,-0.025 0.15415,-0.0504 0.23122,-0.0756 0.6932,-0.12762 1.33754,-0.48531 2.04014,-0.60551 0.17975,-0.0399 0.37011,-0.0829 0.55047,-0.1206 0.0846,-0.0177 0.30544,0.0194 0.25424,-0.0514 -0.7012,-0.96869 -0.54933,-0.89156 -1.0769,-0.70153 -0.58748,0.19577 -1.18348,0.36012 -1.79209,0.47362 1.07427,0.82021 0.61258,0.76031 1.44703,0.41549 0.6282,-0.24351 1.27244,-0.441 1.92388,-0.60972 1.86912,-0.55552 -1.16698,-1.07496 -1.18682,-0.82071 -0.8185,0.10982 -1.6298,0.26817 -2.44149,0.4205 0,0 0.89164,0.63534 0.89164,0.63534 z" />
    <path
       style="fill:#324088;fill-opacity:1;stroke-width:0.225875"
       id="path18705"
       d="m 110.37714,93.676076 c -0.12352,-0.0707 -0.49321,-0.28403 -0.37057,-0.21183 0.96284,0.56686 0.48095,0.28357 0.1644,0.0639 -0.31801,-0.22079 -0.60123,-0.4613 -0.87845,-0.73163 -0.427,-0.44334 -0.60094,-1.03817 -0.84235,-1.59002 -0.30538,-0.67302 -1.00326,-1.02281 -1.6809,-1.2671 -0.41213,0.0618 0.24632,0.43779 0.32354,0.48929 0.56392,0.40709 1.04545,0.91672 1.52785,1.4169 0.53985,0.57825 1.04017,1.19243 1.56189,1.78736 0.27064,0.36318 0.63797,0.6889 0.81529,1.11695 0.11306,-0.56046 -0.0176,-0.0792 1.23707,0.544038 0.0513,0.0254 -0.0911,-0.07 -0.13381,-0.1084 -0.24125,-0.21665 -0.4617,-0.462538 -0.68951,-0.693178 -0.56592,-0.55379 -1.13664,-1.0982 -1.61678,-1.73196 -0.32123,-0.52496 -0.7332,-0.96509 -1.18175,-1.37678 -0.43529,-0.42478 -0.38854,-0.39239 -1.45916,-0.62863 -0.0921,-0.0203 0.11243,0.15376 0.17077,0.22897 0.16568,0.21362 0.3863,0.48142 0.55538,0.68882 0.62232,0.79484 1.30289,1.53837 1.96554,2.29786 0.47881,0.56645 0.96726,1.110688 1.53361,1.585358 0,0 0.77223,0.34506 0.77223,0.34506 v 0 c 0.045,-0.0518 0.14951,-0.0879 0.13524,-0.15551 -0.0564,-0.26763 -0.90356,-0.88567 -1.04173,-1.176038 -0.6701,-0.76694 -1.3818,-1.49629 -2.00149,-2.30765 -0.90255,-1.10914 -0.46074,-0.81315 -2.1831,-1.6232 -0.0692,-0.0326 0.35991,0.31538 0.15883,0.16714 0.44944,0.40886 0.89489,0.81366 1.2006,1.35321 0.47272,0.64693 1.03757,1.20178 1.61382,1.7535 0.45438,0.46283 1.77786,2.040258 2.30614,1.479528 -0.11793,-0.47011 -0.56905,-0.807828 -0.82876,-1.192108 -0.54345,-0.60171 -1.07227,-1.21653 -1.61714,-1.81676 -0.50433,-0.52647 -1.04073,-1.02613 -1.60967,-1.47978 -0.17765,-0.12651 -0.70198,-0.41678 -0.57828,-0.19589 0.009,0.0156 0.0327,0.0136 0.049,0.0204 0.41491,0.19817 0.0261,0.0151 -0.88592,-0.53356 -0.0407,-0.0244 0.0857,0.0409 0.12546,0.0668 0.16105,0.10494 0.25885,0.25169 0.33771,0.42702 0.27054,0.57751 0.44822,1.21119 0.91375,1.67061 0.85556,0.83087 1.88666,1.42316 2.93632,1.97107 0,0 -0.80506,-0.65368 -0.80506,-0.65368 z" />
    <path
       style="fill:#324088;fill-opacity:1;stroke-width:0.225875"
       id="path18707"
       d="m 83.199642,93.070136 c 0.75587,-0.33172 1.483,-0.72752 2.20816,-1.12279 0.11705,-0.0322 0.43341,-0.28685 0.54224,-0.16101 -0.35557,-0.19575 -0.69176,-0.43333 -1.06672,-0.58726 -0.0573,-0.0235 -0.75087,0.59369 -0.82275,0.66268 -0.31927,0.32379 -0.67326,0.63702 -0.908,1.03398 0.44885,0.18935 0.87306,0.45677 1.34657,0.56802 0.20786,0.0489 1.7346,-1.20925 1.95439,-1.39239 0.0775,-0.075 1.1321,-0.96731 1.0321,-1.0278 -0.41757,-0.25257 -0.8703,-0.43959 -1.30545,-0.65939 -0.73312,0.40719 -1.36846,0.96522 -1.9735,1.5445 -0.08,0.0816 -0.16065,0.16248 -0.23994,0.24475 -0.14838,0.15395 -0.36323,0.39657 -0.33869,0.41197 1.26434,0.79344 0.89011,0.94485 1.50088,0.5486 0.48554,-0.37759 0.94391,-0.79514 1.36589,-1.24491 0.72328,-0.59264 -0.68516,-1.39895 -1.31515,-0.98588 -0.37463,0.29426 -0.23575,0.10074 -0.38434,0.60311 0,0 0.66306,0.4319 0.66306,0.4319 v 0 c 0.70927,-0.0964 0.41471,0.0128 0.90844,-0.24768 0.57865,-0.25964 0.21806,-0.0407 -0.9552,-0.83537 -0.0195,-0.0132 0.0283,0.0461 0.0199,0.0683 -0.0319,0.0847 -0.0904,0.14836 -0.14384,0.21964 -0.40483,0.44742 -0.83829,0.87515 -1.33119,1.222 -0.5638,0.33666 -0.30938,0.10217 0.86109,0.88504 0.0158,0.0106 -0.008,-0.0404 5e-5,-0.0577 0.0235,-0.0499 0.0581,-0.0937 0.0919,-0.13691 0.11728,-0.15012 0.26917,-0.3016 0.3983,-0.43736 0.58769,-0.57205 1.21144,-1.1326 1.96022,-1.4764 -0.31249,-0.25485 -0.60952,-0.5306 -0.93745,-0.76452 -0.0216,-0.0154 -0.015,0.0523 -0.0295,0.0747 -0.0326,0.0506 -0.0706,0.0978 -0.11073,0.14247 -0.25406,0.28297 -0.54799,0.52769 -0.828,0.78253 -0.40327,0.33663 -0.80796,0.66622 -1.24741,0.95398 -0.12462,0.0815 -0.25234,0.15833 -0.38159,0.23211 -0.10266,0.0586 -0.37496,0.0625 -0.31381,0.16484 0.19809,0.3312 0.57772,0.50625 0.86658,0.75938 -0.12662,-0.13835 0.65007,-0.85837 0.78359,-0.99163 0.1694,-0.15521 0.33786,-0.31088 0.51725,-0.45429 0.0892,-0.0712 0.34523,-0.11569 0.27383,-0.20525 -0.23117,-0.28991 -0.54125,-0.50443 -0.81188,-0.75665 -0.10719,0.13711 -0.40525,0.12495 -0.51758,0.28906 -0.68413,0.4234 -1.41447,0.7627 -2.09344,1.19462 0,0 0.76171,0.50695 0.76171,0.50695 z" />
    <path
       style="fill:#324088;fill-opacity:1;stroke-width:0.225875"
       id="path18709"
       d="m 78.990232,91.692856 c 0.72894,0.43022 1.29397,1.04208 1.83986,1.68047 0.37364,0.40497 0.61469,0.49369 1.3205,0.61793 0.18643,0.0328 -0.17956,-0.35559 -0.44373,-0.67043 -0.66979,-0.92028 -1.52001,-1.35738 -2.49836,-1.92292 -0.75376,-0.1304 0.68213,0.88715 0.73531,0.93092 0.4261,0.42044 0.95427,0.73494 1.36799,1.16791 0.20091,0.0106 -0.6007,-0.37162 -0.50224,-0.31425 1.11938,0.65221 1.19999,0.73789 0.70623,0.34162 -0.32796,-0.35809 -0.7078,-0.65308 -1.07834,-0.96157 -0.20188,0.53106 1.13335,0.64956 -1.07761,-0.39239 -0.0916,-0.0432 0.15115,0.13613 0.22358,0.2076 0.0785,0.0775 0.45039,0.46939 0.52495,0.54773 0.70253,0.74881 0.94632,0.76707 1.98547,1.11949 -0.62906,-0.50628 -1.34265,-0.82499 -2.05693,-1.20288 0,0 0.65066,0.52972 0.65066,0.52972 v 0 c -1.38106,-0.74816 -0.17827,-0.10593 0.0539,0.12846 2.97508,1.346398 1.32638,0.68673 0.69134,-0.0148 -0.45918,-0.48336 -1.87719,-2.21606 -2.34316,-1.48051 0.35318,0.34094 0.79834,0.58242 1.10537,0.97852 0.24713,0.21424 2.04064,1.65877 2.38659,1.06543 -0.33672,-0.51766 -1.03985,-0.74423 -1.42596,-1.22443 -0.2503,-0.21067 -0.57561,-0.57782 -0.88443,-0.70403 -0.0567,-0.0232 -0.22248,0.006 -0.17713,0.0478 0.0317,0.029 0.0795,0.0319 0.11928,0.0478 -2.0157,-1.2198 0.0438,0.01 0.34646,0.61349 0.14392,0.16058 0.34288,0.49664 0.52499,0.61211 1.98629,1.25951 1.14443,0.68413 0.76953,0.36962 -0.59277,-0.65679 -1.17782,-1.31834 -1.95689,-1.75776 0,0 -0.90727,-0.36065 -0.90727,-0.36065 z" />
    <g
       id="g2733"
       transform="translate(-0.47262228)"
       style="fill:#f5f2c7;fill-opacity:1">
      <path
         style="fill:#f5f2c7;fill-opacity:1;stroke-width:0.400181"
         d="m 97.134207,68.842001 c -0.66281,-0.487138 -3.675975,-1.776441 -6.695935,-2.865125 -3.01996,-1.088683 -9.42593,-3.469745 -14.23549,-5.291249 -4.80956,-1.821505 -10.254826,-3.798054 -12.100592,-4.39233 -1.873957,-0.603352 -3.600488,-1.418492 -3.909718,-1.845883 -0.362827,-0.501469 -0.958724,-0.737864 -1.728163,-0.685576 -0.688735,0.04681 -3.27683,-0.819746 -6.258484,-2.095477 -2.796254,-1.196408 -5.953481,-2.49201 -7.016057,-2.879111 -1.821615,-0.663626 -2.5487,-1.374717 -1.423549,-1.392238 0.279625,-0.0044 1.698088,-0.17954 3.152143,-0.389299 1.454052,-0.209762 5.114605,-0.557759 8.134562,-0.773327 3.019954,-0.215568 9.334408,-1.000618 14.032118,-1.744556 9.09873,-1.440894 15.58521,-2.260406 23.7936,-3.006121 9.357928,-0.850152 9.995918,-0.798383 17.896028,1.452159 8.3932,2.391007 17.64267,4.584059 23.82886,5.649833 2.44131,0.420595 6.81811,1.210015 9.72621,1.754266 2.90811,0.544252 7.84986,1.444914 10.98166,2.001472 6.86961,1.220806 7.52447,1.370821 7.52447,1.723703 0,0.493112 -5.4365,2.747177 -7.63188,3.164308 -1.17757,0.223745 -2.82276,0.682545 -3.65594,1.019555 -0.83318,0.337012 -4.38408,1.311073 -7.89088,2.164578 -5.79051,1.409332 -8.68003,1.969219 -22.30756,4.322474 -2.34887,0.405604 -6.28395,1.104733 -8.74466,1.553623 -2.4607,0.44888 -5.86906,1.060491 -7.57411,1.359126 -1.70506,0.298634 -3.90817,0.889 -4.89581,1.311931 l -1.795713,0.768965 z"
         id="path13262" />
      <path
         style="fill:#f5f2c7;fill-opacity:1;stroke-width:0.403479"
         d="m 113.7992,95.537114 c -0.44033,-0.66975 -0.93973,-1.218238 -1.10976,-1.218878 -0.17004,-6.8e-4 -1.11576,-0.75651 -2.10158,-1.67971 -1.26495,-1.1846 -1.7924,-1.99882 -1.7924,-2.76694 0,-1.7848 -1.9293,-5.17363 -4.04629,-7.10734 -3.50292,-3.19966 -7.701433,-3.87046 -11.594858,-1.85249 -3.26053,1.68993 -7.17592,6.21302 -7.17592,8.28971 0,0.759 -1.1187,1.83274 -2.94022,2.82204 l -1.39302,0.75657 -5.73929,-4.06378 c -6.99475,-4.95272 -10.347265,-7.04315 -12.84246,-8.00778 l -1.899274,-0.73424 0.09793,-11.095616 c 0.05386,-6.102586 0.195723,-11.194924 0.315249,-11.316306 0.351989,-0.357458 5.909561,1.587567 9.648995,3.376932 1.90384,0.911006 3.64561,1.656384 3.87059,1.656384 0.72839,0 15.33558,6.117127 18.64985,7.810095 4.931315,2.51897 5.761475,2.74831 7.596788,2.09874 0.85515,-0.30265 2.74656,-0.74871 4.20314,-0.99124 1.45659,-0.24253 4.08942,-0.77982 5.85074,-1.19398 1.76131,-0.41417 5.45407,-1.142081 8.20613,-1.61759 5.89314,-1.018241 12.47972,-2.227419 18.65773,-3.425222 l 4.4471,-0.862205 0.25666,6.512687 c 0.19338,4.906911 0.10893,7.415161 -0.34251,10.172871 -0.32954,2.01309 -0.59986,4.523 -0.60069,5.57759 -8.9e-4,1.41223 -0.1861,2.01546 -0.70205,2.28944 -2.15725,1.14555 -12.05901,4.18482 -15.36641,4.71659 -2.12179,0.34116 -5.33147,1.172298 -7.13262,1.846998 -1.80115,0.6747 -3.48769,1.2262 -3.74788,1.22556 -0.26019,-6.9e-4 -0.83334,-0.54915 -1.27367,-1.21889 z"
         id="path18711" />
    </g>
    <path
       style="fill:#ccc923;fill-opacity:0.354334;stroke-width:0.403479"
       d="m 93.033582,98.599814 c -2.99767,-1.08556 -5.45399,-4.324368 -5.45399,-7.191428 0,-3.92061 5.3917,-9.40264 10.101625,-10.27088 3.172543,-0.58482 5.391673,0.79146 8.254113,5.11914 1.21256,1.83323 1.65066,3.58689 0.89611,3.58689 -0.19955,0 -0.2784,0.32799 -0.17521,0.72889 0.10319,0.40088 -0.41396,1.9107 -1.1492,3.35514 -1.10209,2.165118 -1.7184,2.858348 -3.50986,3.947988 -1.87494,1.14042 -2.532393,1.31927 -4.792683,1.30387 -1.44081,-0.01 -3.317715,-0.27065 -4.170905,-0.57961 z"
       id="path28651" />
    <path
       style="fill:#ccc923;fill-opacity:0.354334;stroke-width:0.403479"
       d="m 79.173302,108.47489 c 0,-0.12555 0.2702,-1.00634 0.60045,-1.95729 1.3108,-3.77447 0.55145,-4.46647 -4.9225,-4.4859 -2.79505,-0.01 -3.32551,-0.10297 -2.68319,-0.47064 1.68662,-0.96546 9.30518,-5.775946 11.37038,-7.179454 2.08366,-1.41605 2.17967,-1.44061 2.60195,-0.66576 0.24114,0.44251 1.37629,1.761368 2.52253,2.930808 l 2.08407,2.12623 -1.88392,1.947146 c -1.03616,1.07093 -3.14488,2.84116 -4.68603,3.93384 -1.54115,1.09269 -3.29746,2.4508 -3.90292,3.01802 -0.60545,0.56721 -1.10082,0.92857 -1.10082,0.803 z"
       id="path35001" />
    <path
       style="fill:#000080;fill-opacity:0.354334;stroke-width:0.225875"
       id="path35105"
       d="m 101.41529,102.225 c -0.51263,-0.33713 -1.04647,-0.67348 -1.455453,-1.14103 -0.17647,-0.27593 -0.18455,-0.60238 -0.21538,-0.91917 -0.0772,-0.423476 -0.0205,-0.212446 -1.05601,-0.447316 -0.0551,-0.0125 0.0314,0.11113 0.0585,0.16139 0.13651,0.253046 0.38828,0.449106 0.59123,0.641166 0.32977,0.36088 0.811523,0.64436 1.038323,1.09591 0.14882,-0.51636 -0.005,-0.1724 0.99927,0.39079 0.0556,0.0311 -0.10534,-0.0723 -0.16051,-0.10427 -0.58534,-0.33934 -1.18711,-0.65391 -1.768523,-1 1.651133,1.2524 0.677543,0.20184 0.32379,0.0898 -0.37274,-0.11804 -0.74005,-0.28961 -1.12972,-0.31415 -0.0985,-0.006 0.10663,0.16872 0.15995,0.25307 0.4794,0.49715 1.867253,1.80915 2.404853,1.51235 0.17219,-0.74827 -1.891263,-1.56796 -2.165903,-1.67092 -0.5623,-0.20969 -0.41966,0.19035 -0.1513,0.47347 0.64937,0.67566 2.135773,1.50763 1.734433,0.15428 -0.0609,-0.10627 -0.11645,-0.21583 -0.18251,-0.31884 -0.11464,-0.1788 -0.36502,-0.6234 -0.574353,-0.71554 -1.57075,-0.691486 -1.62523,-0.924156 -1.22105,-0.23108 0,0 1.28034,0.57984 1.28034,0.57984 v 0 c -0.32957,-0.62746 -0.0746,-0.21382 -1.47481,-0.937706 -0.0655,-0.0339 0.11748,0.0906 0.16909,0.14369 0.23967,0.246656 0.43452,0.537796 0.62195,0.825406 0.0699,0.16282 0.12547,0.25591 0.15134,0.42521 0.004,0.0235 0.0116,0.0566 -0.007,0.0712 -0.0207,0.0165 -0.10081,-0.0175 -0.0787,-0.004 0.35989,0.23318 0.734963,0.44124 1.100463,0.66522 0.0553,0.0338 -0.11296,-0.0632 -0.16943,-0.0947 -0.0852,-0.0746 -0.14308,-0.18881 -0.246123,-0.23481 -0.20923,-0.0934 0.119253,0.20885 0.199033,0.11694 0.56866,0.24666 0.24088,0.1152 -0.812633,-0.52493 -0.0159,-0.01 0.61859,0.45335 0.60505,0.44764 2.188433,1.33451 0.425293,0.32307 0.003,-0.16102 -0.47246,-0.60343 -0.0845,-0.16356 -1.43897,-0.94156 -0.11115,-0.0639 0.21714,0.13718 0.31935,0.21492 0.63208,0.48077 0.17515,0.1406 1.553433,0.9751 0.30038,0.16782 0.66788,0.37471 0.49357,0.26346 -2.219643,-1.41665 0.35256,0.22724 0.46651,0.27925 0.049,0.0223 0.0699,-0.0827 0.10478,-0.12406 -0.25912,-0.46731 -0.72588,-0.78843 -1.0907,-1.16108 -0.0546,-0.0513 -0.651883,-0.71005 -0.658833,-0.7147 -0.34612,-0.23148 -0.71218,-0.430706 -1.07185,-0.639786 -0.0135,-0.008 0.0211,0.0234 0.0315,0.035 0.0638,0.3516 0.0485,0.717076 0.2748,1.018836 0.43216,0.51497 1.01539,0.86483 1.572413,1.22332 0,0 0.87286,0.34246 0.87286,0.34246 z" />
    <path
       style="fill:#8db288;fill-opacity:1;stroke-width:0.403479"
       d="m 109.54346,110.90958 c -0.35917,-0.29066 -1.69064,-1.80954 -2.95881,-3.37527 -1.26816,-1.56573 -3.19664,-3.78374 -4.28552,-4.9289 l -1.97975,-2.08211 1.06804,-0.27234 c 2.53295,-0.645866 5.55162,-3.601616 6.37719,-6.244244 0.15631,-0.50034 0.41393,-0.90971 0.57249,-0.90971 0.55186,0 3.95805,3.878968 5.44032,6.195428 0.82069,1.282546 2.01297,2.777136 2.64951,3.321296 l 1.15734,0.98937 -3.09343,0.29048 c -1.70139,0.15976 -3.22578,0.49526 -3.38753,0.74554 -0.16175,0.2503 -0.31816,1.37012 -0.34759,2.48851 -0.0294,1.11838 -0.16727,2.54575 -0.30634,3.17193 -0.21942,0.98789 -0.33927,1.06859 -0.90592,0.61002 z"
       id="path35176" />
    <path
       style="fill:#9feda1;fill-opacity:1;stroke-width:1.78629"
       d="m 145.95598,427.8615 c -12.50179,-2.99914 -18.25312,-13.01192 -18.20529,-31.69451 0.0832,-32.48818 14.38946,-61.23778 30.47295,-61.23778 4.13784,0 5.22181,-0.79014 5.22181,-3.8063 0,-3.39821 0.7182,-3.69131 6.69859,-2.73376 3.78883,0.60664 8.17432,2.84199 10.09589,5.14601 5.39348,6.46695 15.35873,29.22294 15.35873,35.0722 0,4.86387 -2.72102,17.92167 -7.14369,34.28161 -4.64593,17.1858 -25.02969,29.16336 -42.49899,24.97253 z m 45.28211,-50.83424 c 6.51484,-4.80837 0.57906,-6.72429 -23.90994,-7.71752 -12.77253,-0.51803 -24.69903,-0.36986 -26.50334,0.32927 -6.45849,2.50252 2.62188,6.36106 15.37033,6.53134 9.38522,0.12536 24.2892,1.6741 30.57723,3.17742 0.54907,0.13127 2.55864,-0.91296 4.46572,-2.32051 z m -16.52803,-14.65972 c 0.62826,-0.62826 0.56127,-2.03497 -0.14886,-3.12601 -0.71014,-1.09104 -1.29116,-7.18698 -1.29116,-13.54654 0,-9.11589 -0.59821,-11.68304 -2.82681,-12.13081 -3.93179,-0.78999 -8.48899,23.31707 -5.165,27.32223 2.23811,2.69676 7.40484,3.50811 9.43183,1.48113 z"
       id="path2806"
       transform="scale(0.26458333)" />
    <path
       style="fill:#9feda1;fill-opacity:1;stroke-width:1.78629"
       d="m 352.17617,371.71783 c -9.18112,-3.40163 -14.76528,-8.94714 -18.28196,-18.15543 -3.77489,-9.88441 -1.33496,-17.9282 8.76029,-28.88026 15.20987,-16.50075 31.97524,-21.61287 43.62635,-13.30259 8.69324,6.20054 17.24649,19.58559 17.04554,26.6747 -0.27364,9.65361 -8.83101,24.99551 -16.93228,30.35667 -8.617,5.70246 -23.79358,7.16917 -34.21794,3.30691 z"
       id="path9846"
       transform="scale(0.26458333)" />
    <path
       style="fill:#9feda1;fill-opacity:1;stroke-width:1.78629"
       d="m 398.16968,399.75231 -16.24939,-19.09871 6.86843,-3.39823 c 7.56944,-3.74506 15.17272,-11.86325 18.49743,-19.7501 l 2.15472,-5.11143 6.37306,6.89772 c 5.92554,6.41336 24.50634,30.47685 24.50634,31.73751 0,0.30887 -4.50569,1.02661 -10.01265,1.59497 -5.50696,0.56837 -10.3495,1.37025 -10.7612,1.78195 -0.41171,0.41171 -1.24715,6.08786 -1.85654,12.61368 -0.60939,6.52582 -1.59462,11.85753 -2.18939,11.84824 -0.59478,-0.009 -8.39364,-8.6113 -17.33081,-19.1156 z"
       id="path9848"
       transform="scale(0.26458333)" />
    <path
       style="fill:#b6e882;fill-opacity:1;stroke-width:1.78629"
       d="m 303.21673,399.10363 c 2.6114,-10.28811 -0.56703,-13.00876 -16.54064,-14.15832 l -12.41053,-0.89315 24.46996,-15.4899 24.46996,-15.4899 9.27219,10.13103 9.27218,10.13104 -4.75004,5.08415 c -4.42631,4.73765 -33.45926,27.96219 -34.95548,27.96219 -0.37111,0 0.15648,-3.27471 1.1724,-7.27714 z"
       id="path9850"
       transform="scale(0.26458333)" />
    <path
       style="fill:#b6e882;fill-opacity:1;stroke-width:1.78629"
       d="m 350.02411,369.92869 c -11.33472,-4.93709 -18.9337,-19.43329 -16.10178,-30.71656 1.67735,-6.6831 17.86602,-23.12749 27.23072,-27.66087 10.87256,-5.26332 20.33702,-3.92968 28.63057,4.03434 9.31527,8.94515 13.52468,18.24219 12.09389,26.71095 -1.5726,9.30819 -10.95584,22.79691 -18.69062,26.86841 -7.42157,3.90663 -25.01692,4.31185 -33.16278,0.76373 z"
       id="path12750"
       transform="scale(0.26458333)" />
    <path
       style="fill:#b6e882;fill-opacity:1;stroke-width:1.78629"
       d="m 355.87926,370.74342 c -11.99171,-2.35824 -20.95005,-13.87221 -20.95005,-26.92667 0,-6.50243 1.16902,-8.59207 9.96667,-17.81548 11.46854,-12.02357 18.82222,-16.08011 29.14993,-16.08011 5.91917,0 8.7044,1.25378 14.58257,6.56435 9.79331,8.84766 12.99127,15.4764 11.94493,24.75948 -1.00029,8.87451 -10.05667,22.94685 -17.05194,26.49629 -6.39698,3.24587 -19.28503,4.64561 -27.64211,3.00214 z"
       id="path12758"
       transform="scale(0.26458333)" />
    <path
       style="fill:#000080;fill-opacity:1;stroke-width:0.264583"
       id="path13168"
       d="m 75.057959,127.42804 c 0.348142,0.57372 0.737889,1.12195 1.145924,1.6544 0.468498,0.62721 1.084763,1.09337 1.731637,1.52007 1.355789,0.8854 2.789404,1.62283 4.247584,2.31594 0.862063,0.40397 1.763316,0.69798 2.6925,0.89813 1.080281,0.21598 2.176526,0.17141 3.268803,0.11391 1.209958,-0.0732 2.405774,-0.27995 3.595516,-0.5027 1.106125,-0.20326 2.198735,-0.46354 3.27584,-0.78608 0.902034,-0.26921 1.767636,-0.63456 2.614589,-1.04173 0.631685,-0.32058 1.251617,-0.66353 1.868524,-1.01149 0.320517,-0.19308 0.641774,-0.32017 1.009084,-0.21647 0.66331,0.38751 1.60395,0.8934 -1.524563,-0.86889 -0.05247,-0.0296 0.10143,0.0651 0.150058,0.10062 0.142523,0.10413 0.215474,0.17401 0.351602,0.29332 0.496692,0.5071 1.057393,0.93426 1.634813,1.34375 1.35509,0.94956 2.79465,1.77654 4.27433,2.51582 0.88065,0.43578 1.81099,0.75958 2.75581,1.02355 0.91916,0.26712 1.87153,0.357 2.82368,0.39704 1.11013,0.0142 2.21503,-0.1193 3.31266,-0.27086 1.32389,-0.1722 2.58301,-0.60509 3.8026,-1.13128 1.28847,-0.55325 2.50282,-1.25135 3.65649,-2.0447 1.05364,-0.69895 1.87923,-1.63154 2.62062,-2.64159 0.60225,-0.87147 1.17754,-1.7646 1.63666,-2.72041 0.32113,-0.74333 0.56266,-1.5411 0.53948,-2.35656 0,0 -1.96058,-1.01654 -1.96058,-1.01654 v 0 c -0.14288,0.76328 -0.19818,1.54701 -0.55913,2.25357 -0.42511,0.95709 -0.99524,1.83675 -1.57976,2.70352 -0.70796,1.00158 -1.50232,1.92343 -2.53888,2.60217 -1.14441,0.7815 -2.34716,1.47074 -3.62484,2.01312 -1.21665,0.50426 -2.46956,0.91664 -3.7838,1.07367 -1.09347,0.14375 -2.19504,0.26872 -3.29994,0.23043 -0.94325,-0.0529 -1.8835,-0.1616 -2.79135,-0.43657 -0.93779,-0.27818 -1.86101,-0.61086 -2.73291,-1.05832 -0.66859,-0.34268 -2.30396,-1.25506 0.65814,0.42716 1.25148,0.71073 -2.42235,-1.38726 -1.152,-0.75209 -0.57158,-0.40044 -1.14606,-0.79731 -1.62557,-1.30982 -0.80055,-0.76222 -1.761474,-1.4448 -2.839688,-1.71761 -0.397608,-0.0177 -0.74626,0.1438 -1.080516,0.34961 -0.60847,0.34975 -1.22165,0.69192 -1.848805,1.00726 -0.829093,0.40876 -1.686431,0.75501 -2.570176,1.02828 -1.069131,0.31716 -2.152454,0.57722 -3.250023,0.77678 -1.174617,0.22476 -2.356387,0.42715 -3.551944,0.49801 -1.084151,0.0563 -2.172668,0.0718 -3.239732,-0.16548 -0.914072,-0.21679 -1.803223,-0.51533 -2.650385,-0.92546 -0.418131,-0.19979 -0.836903,-0.39813 -1.248412,-0.6114 -0.134403,-0.0697 -0.530783,-0.2911 -0.401021,-0.21314 0.03702,0.0223 2.305137,1.33932 1.030541,0.59914 -0.657688,-0.41347 -1.299249,-0.85398 -1.788924,-1.46818 -0.422656,-0.52561 -0.817007,-1.07305 -1.184172,-1.63894 0,0 -1.870364,-0.83296 -1.870364,-0.83296 z" />
    <path
       style="fill:#000080;fill-opacity:1;stroke-width:0.264583"
       id="path13174"
       d="m 92.253265,136.52715 c 1.401788,0.96066 2.847207,1.59569 4.450595,2.06769 1.01123,0.30302 2.053929,0.44872 3.104592,0.51251 0.898188,0.0576 1.782958,-0.0661 2.648508,-0.29653 0.7207,-0.19694 1.39925,-0.5029 2.02285,-0.91179 0.55469,-0.39431 1.06583,-0.8454 1.59763,-1.26952 0.2348,-0.17893 0.46114,-0.37957 0.73154,-0.50386 0,0 -1.81163,-1.20961 -1.81163,-1.20961 v 0 c -0.30237,0.11804 -0.53869,0.33912 -0.78909,0.54045 -0.52038,0.42467 -1.02384,0.87286 -1.57856,1.25301 -0.6129,0.38208 -1.26726,0.67454 -1.96498,0.8679 -0.843126,0.216 -1.705604,0.32058 -2.577314,0.26194 -1.036822,-0.0754 -2.064027,-0.23264 -3.060342,-0.53908 -0.864024,-0.26413 -4.356193,-1.8011 -0.787956,-0.0106 0,0 -1.985843,-0.76248 -1.985843,-0.76248 z" />
    <path
       style="fill:#000080;fill-opacity:1;stroke-width:0.264583"
       id="path13176"
       d="m 124.50169,111.22406 c 3.58671,-0.94787 7.14936,-1.99578 10.73121,-2.96754 7.76088,-2.1402 15.62061,-3.89141 23.47969,-5.62606 7.05536,-1.5376 14.09799,-3.131443 21.12744,-4.783245 0.74618,-0.194247 1.49235,-0.388493 2.23853,-0.582742 0,0 -1.26508,-0.875038 -1.26508,-0.875038 v 0 c -0.78516,0.167412 -1.57033,0.334825 -2.3555,0.502237 -6.98684,1.687465 -13.98458,3.328598 -21.00672,4.863778 -7.88003,1.75433 -15.76789,3.48024 -23.56699,5.57403 -3.5531,0.93469 -7.126,1.84068 -10.59066,3.07039 0,0 1.20808,0.82419 1.20808,0.82419 z" />
    <path
       style="fill:#000080;fill-opacity:1;stroke-width:0.264583"
       id="path13178"
       d="m 134.69187,115.97684 c 4.04566,-0.25154 8.04327,-1.08757 12.04152,-1.73051 7.50785,-1.20679 15.05625,-2.13327 22.59871,-3.09106 2.61414,-0.47061 5.31588,-0.51394 7.91772,-1.06462 0.53186,-0.11257 1.04001,-0.31715 1.56002,-0.47572 0,0 -0.78963,-0.55732 -0.78963,-0.55732 v 0 c -0.72594,0.0132 -1.45384,-0.015 -2.17784,0.0398 -2.64321,0.20011 -5.2462,0.84833 -7.88528,1.08608 -7.51418,1.02101 -15.03983,1.9658 -22.53157,3.14441 -3.80856,0.6234 -7.64107,1.18353 -11.37209,2.19168 0,0 0.63844,0.45728 0.63844,0.45728 z" />
    <path
       style="fill:#000080;fill-opacity:1;stroke-width:0.264583"
       id="path13180"
       d="m 135.37034,122.59565 c 2.88018,-0.0608 5.75997,-0.0662 8.64104,-0.0553 6.59993,0.0576 13.19057,0.4381 19.77412,0.87905 5.92291,0.42266 11.84102,0.90843 17.76021,1.37937 3.54265,0.28581 7.08863,0.52665 10.6376,0.71794 0.26233,-0.0653 0.52466,-0.13068 0.78699,-0.19603 0,0 -0.81011,-0.59591 -0.81011,-0.59591 v 0 c -0.50214,-0.11049 -1.00429,-0.22098 -1.50643,-0.33147 -3.51481,-0.17424 -7.02803,-0.37835 -10.53689,-0.64949 -5.87155,-0.43576 -11.74187,-0.89156 -17.61736,-1.27127 -6.59012,-0.39721 -13.18363,-0.79159 -19.78682,-0.87688 -2.78746,-0.0213 -5.61598,-0.12887 -8.38242,0.25939 0,0 1.04007,0.74061 1.04007,0.74061 z" />
    <path
       style="fill:#000080;fill-opacity:1;stroke-width:0.264583"
       id="path13182"
       d="m 17.426347,131.23923 c -0.735755,-0.10637 -3.654537,0.0625 0.261902,0.71714 0.366826,0.0613 0.72298,-0.17492 1.083621,-0.2658 0.479564,-0.12084 0.957971,-0.24624 1.436956,-0.36936 5.746728,-1.4704 11.5089,-2.87216 17.296403,-4.17288 7.044553,-1.55976 14.140974,-2.86584 21.24106,-4.14277 3.585358,-0.65882 7.189964,-1.21765 10.756045,-1.9767 0,0 -1.412973,-0.98733 -1.412973,-0.98733 v 0 c -3.601807,0.58103 -7.174542,1.32827 -10.765972,1.96929 -7.071752,1.33136 -14.140154,2.68398 -21.175983,4.19592 -5.801484,1.29062 -11.591348,2.63608 -17.33952,4.14892 -0.48259,0.12106 -0.966402,0.23734 -1.447769,0.36317 -0.353182,0.0923 -0.984511,-0.0668 -1.055713,0.29124 -0.343598,1.72778 1.230371,0.81177 1.557963,0.53263 0,0 -0.43602,-0.30347 -0.43602,-0.30347 z" />
    <path
       style="fill:#000080;fill-opacity:1;stroke-width:0.264583"
       id="path13184"
       d="m 16.678243,121.5948 c 1.506416,-0.15177 2.995346,-0.41989 4.479977,-0.71293 2.533396,-0.45576 5.054052,-0.97782 7.573217,-1.50553 0.771962,-0.2988 1.654514,-0.21428 2.429018,-0.50399 0.284898,-0.10657 0.515215,-0.3235 0.772824,-0.48524 0,0 -0.661257,-0.46152 -0.661257,-0.46152 v 0 c -0.511315,-0.0141 -1.023924,-0.0813 -1.533946,-0.0423 -0.820949,0.0628 -1.593601,0.46031 -2.416251,0.51264 -2.490891,0.51942 -4.983156,1.03263 -7.468895,1.57633 -1.340064,0.2703 -2.709096,0.50932 -3.959725,1.08344 0,0 0.785038,0.53911 0.785038,0.53911 z" />
    <path
       style="fill:#000080;fill-opacity:1;stroke-width:0.264583"
       id="path13186"
       d="m 52.382112,115.21092 c 2.182559,-0.0823 4.336315,-0.43369 6.493455,-0.7517 0.389078,-0.1296 0.778155,-0.2592 1.167236,-0.3888 0,0 -0.532379,-0.37556 -0.532379,-0.37556 v 0 c -0.566454,0.005 -1.132909,0.009 -1.699361,0.0139 -2.030605,0.28383 -4.064224,0.54434 -6.051235,1.06215 0,0 0.622284,0.44 0.622284,0.44 z" />
    <path
       style="fill:#000080;fill-opacity:1;stroke-width:0.264583"
       id="path13188"
       d="m 14.878436,101.67143 c 2.234202,0.14796 4.470732,0.26113 6.708136,0.35473 0.933159,-0.10805 2.41488,0.27329 3.326441,0.14147 0.163141,-0.0236 0.287379,-0.16156 0.431068,-0.24233 0,0 -0.505442,-0.37269 -0.505442,-0.37269 v 0 c -0.418406,-0.12039 -0.827201,-0.28144 -1.255219,-0.36118 -1.080336,-0.20129 -2.226699,0.0101 -3.312357,-0.12899 -2.060546,-0.0763 -4.151133,-0.24327 -6.200669,0.0304 0,0 0.808042,0.57862 0.808042,0.57862 z" />
    <path
       style="fill:#000080;fill-opacity:1;stroke-width:0.264583"
       id="path13190"
       d="m 57.215574,106.25772 c 1.245089,0.26696 2.515774,0.39836 3.776355,0.57167 0,0 -1.382083,-1.03531 -1.382083,-1.03531 v 0 c -1.192485,-0.18636 -2.398088,-0.43242 -3.608231,-0.43026 0,0 1.213959,0.8939 1.213959,0.8939 z" />
    <path
       style="fill:#000080;fill-opacity:1;stroke-width:0.264583"
       id="path13202"
       d="m 90.940466,112.36135 c 0.802756,0.63566 1.580565,1.29688 2.451139,1.83899 2.158677,1.27119 3.033247,1.93584 5.226643,0.87712 0.923425,-0.53606 1.755222,-1.21209 2.575412,-1.89157 0.0621,-0.0799 0.12422,-0.15989 0.18632,-0.23984 0,0 -1.562217,-0.99737 -1.562217,-0.99737 v 0 c -0.122336,0.0466 -0.244674,0.0931 -0.367009,0.1397 -0.845421,0.62418 -1.616911,1.35645 -2.553266,1.85077 -0.748316,0.34108 -1.459894,0.59357 -2.29085,0.39853 -0.180925,-0.0425 -0.669541,-0.29621 -0.529751,-0.17376 0.358224,0.3138 0.803955,0.51073 1.205933,0.76609 -0.908457,-0.52552 -1.708692,-1.19896 -2.529882,-1.84906 0,0 -1.812472,-0.7196 -1.812472,-0.7196 z" />
    <rect
       style="fill:#000080;fill-opacity:1;stroke-width:0.264583"
       id="rect13265"
       width="1.5406083"
       height="0.4969795"
       x="-25.453444"
       y="195.50206" />
  </g>
</svg>
